<?xml version="1.0" encoding="UTF-8"?> <!-- Generator: Adobe Illustrator 21.0.0, SVG Export Plug-In . SVG Version: 6.00 Build 0) --> <svg xmlns="http://www.w3.org/2000/svg" xmlns:xlink="http://www.w3.org/1999/xlink" id="Layer_1" x="0px" y="0px" viewBox="0 0 98.624 98.624" style="enable-background:new 0 0 98.624 98.624;" xml:space="preserve"> <g> <polygon points="43.716,56.528 58.987,48.427 43.716,40.49 "></polygon> <path d="M49.312,0C22.078,0,0,22.078,0,49.312s22.078,49.312,49.312,49.312s49.312-22.078,49.312-49.312S76.546,0,49.312,0z M76.845,60.797c-0.657,4.16-2.668,6.419-6.897,6.897c-4.726,0.534-15.352,0.78-20.075,0.78c-4.887,0-14.771-0.205-19.705-0.616 c-4.241-0.353-7.135-2.722-7.718-6.938c-0.424-3.07-0.698-6.719-0.698-12.521c0-6.459,0.233-9.192,0.78-12.11 c0.781-4.164,2.769-6.181,7.307-6.65c4.762-0.493,9.264-0.739,19.336-0.739c4.924,0,15.54,0.255,20.444,0.698 c4.283,0.387,6.696,3.007,7.225,7.184c0.369,2.915,0.698,7.088,0.698,11.577C77.543,56.24,76.845,60.797,76.845,60.797z"></path> </g> </svg> 