<?xml version="1.0" encoding="UTF-8"?> <!-- Creator: CorelDRAW 2020 (64-Bit) --> <svg xmlns="http://www.w3.org/2000/svg" xmlns:xlink="http://www.w3.org/1999/xlink" xmlns:xodm="http://www.corel.com/coreldraw/odm/2003" xml:space="preserve" width="137.844mm" height="147.906mm" style="shape-rendering:geometricPrecision; text-rendering:geometricPrecision; image-rendering:optimizeQuality; fill-rule:evenodd; clip-rule:evenodd" viewBox="0 0 19104.67 20499.13"> <defs> <style type="text/css"> <![CDATA[ .str0 {stroke:#263138;stroke-width:10.56;stroke-miterlimit:22.9256} .fil4 {fill:black;fill-rule:nonzero} .fil3 {fill:#263138;fill-rule:nonzero} .fil10 {fill:#445964;fill-rule:nonzero} .fil5 {fill:#B28704;fill-rule:nonzero} .fil0 {fill:#DFDFDF;fill-rule:nonzero} .fil1 {fill:#E8505B;fill-rule:nonzero} .fil7 {fill:#EB996E;fill-rule:nonzero} .fil11 {fill:#F9F9F9;fill-rule:nonzero} .fil6 {fill:#FFBD9C;fill-rule:nonzero} .fil8 {fill:#FFC106;fill-rule:nonzero} .fil12 {fill:black;fill-rule:nonzero;fill-opacity:0.301961} .fil9 {fill:white;fill-rule:nonzero;fill-opacity:0.600000} .fil2 {fill:#FFC106;fill-rule:nonzero;fill-opacity:0.800000} ]]> </style> </defs> <g id="Слой_x0020_1"> <metadata id="CorelCorpID_0Corel-Layer"></metadata> <g id="_2273393756928"> <g> <g> <g> <path class="fil0" d="M470.78 11858.31c-7.03,0 -12.72,-203.92 -12.72,-455.39 0,-251.55 5.7,-455.41 12.72,-455.41 7.04,0 12.74,203.86 12.74,455.41 0,251.47 -5.7,455.39 -12.74,455.39z"></path> </g> </g> </g> <g> <g> <g> <path class="fil0" d="M941.58 11402.91c0,7.03 -210.8,12.74 -470.77,12.74 -260.06,0 -470.81,-5.71 -470.81,-12.74 0,-7.03 210.75,-12.74 470.81,-12.74 259.96,0 470.77,5.71 470.77,12.74z"></path> </g> </g> </g> </g> <g id="_2273393763504"> <g> <g> <g> <path class="fil0" d="M18633.88 16539.18c-7.03,0 -12.74,-203.9 -12.74,-455.37 0,-251.55 5.71,-455.41 12.74,-455.41 7.03,0 12.74,203.86 12.74,455.41 0,251.47 -5.71,455.37 -12.74,455.37z"></path> </g> </g> </g> <g> <g> <g> <path class="fil0" d="M19104.67 16083.78c0,7.04 -210.8,12.74 -470.77,12.74 -260.06,0 -470.81,-5.7 -470.81,-12.74 0,-7.03 210.75,-12.72 470.81,-12.72 259.96,0 470.77,5.7 470.77,12.72z"></path> </g> </g> </g> </g> <g id="_2273393766096"> <g> <g> <g> <path class="fil0" d="M15870.99 910.78c-7.04,0 -12.74,-203.9 -12.74,-455.37 0,-251.55 5.7,-455.41 12.74,-455.41 7.03,0 12.72,203.86 12.72,455.41 0,251.47 -5.7,455.37 -12.72,455.37z"></path> </g> </g> </g> <g> <g> <g> <path class="fil0" d="M16341.78 455.39c0,7.04 -210.79,12.74 -470.77,12.74 -260.05,0 -470.81,-5.7 -470.81,-12.74 0,-7.03 210.76,-12.72 470.81,-12.72 259.98,0 470.77,5.7 470.77,12.72z"></path> </g> </g> </g> </g> <g id="_2273393706000"> <g> <path class="fil0" d="M7738.52 16777.88c0,76.84 -62.3,139.14 -139.15,139.14 -76.84,0 -139.14,-62.3 -139.14,-139.14 0,-76.85 62.3,-139.15 139.14,-139.15 76.85,0 139.15,62.3 139.15,139.15z"></path> </g> </g> <g id="_2273393712384"> <g> <path class="fil0" d="M4381.08 16083.79c0,76.84 -62.3,139.14 -139.15,139.14 -76.84,0 -139.14,-62.3 -139.14,-139.14 0,-76.85 62.3,-139.15 139.14,-139.15 76.85,0 139.15,62.3 139.15,139.15z"></path> </g> </g> <g id="_2273393714256"> <g> <path class="fil0" d="M13940.71 8122.02c0,76.85 -62.3,139.15 -139.15,139.15 -76.84,0 -139.14,-62.3 -139.14,-139.15 0,-76.84 62.3,-139.14 139.14,-139.14 76.85,0 139.15,62.3 139.15,139.14z"></path> </g> </g> <g id="_2273393717712"> <g> <g> <g> <g> <path class="fil1" d="M8234.14 1832.48c-1812.81,131.68 -3791.75,371.65 -5242.87,928.76l458.27 3101.1c0,0 2812.71,-1006.54 5101.1,-936.65l-316.5 -3093.21z"></path> </g> </g> </g> <g> <g> <g> <path class="fil2" d="M8234.14 1832.48c-1812.81,131.68 -3791.75,371.65 -5242.87,928.76l458.27 3101.1c0,0 2812.71,-1006.54 5101.1,-936.65l-316.5 -3093.21z"></path> </g> </g> </g> </g> <g> <g> <g> <path class="fil3" d="M8103.41 4516.61c0.04,0.43 -5.86,1.54 -17.42,3.27 -12.88,1.76 -29.87,4.1 -51.41,7.07 -46.75,5.83 -113.11,14.14 -197.85,24.73 -85.97,10.15 -191.11,22.74 -312.78,40.65 -121.7,17.46 -260.64,34.83 -413.32,60.21 -611.57,94.54 -1453.36,250.62 -2367.8,487.14 -317.87,82.02 -624.21,166.66 -904.57,254.56l-13.93 4.37 -1.97 -14.33c-97.96,-711.14 -192.83,-1324.17 -265.58,-1758.95 -37.16,-216.09 -66.84,-388.71 -87.52,-508.94 -10.19,-58.17 -18.16,-103.61 -23.84,-136.02 -2.34,-14.54 -4.21,-26.13 -5.67,-35.2 -1.16,-7.93 -1.58,-12 -1.23,-12.07 0.36,-0.07 1.48,3.87 3.34,11.67 2,8.97 4.55,20.43 7.75,34.8 6.62,32.22 15.91,77.42 27.8,135.3 23.62,118.15 56.19,290.72 94.61,507.86 76.99,434.22 175.09,1047.02 274.59,1758.19l-15.88 -9.95c281.17,-88.83 587.44,-173.8 905.78,-255.95 915.43,-236.76 1758.69,-390.22 2371.45,-480.28 152.97,-24.24 292.19,-40.37 414.17,-56.51 121.92,-16.58 227.3,-27.75 313.49,-36.38 84.99,-8.57 151.55,-15.27 198.46,-19.99 21.65,-1.91 38.74,-3.42 51.65,-4.56 11.66,-0.89 17.66,-1.12 17.7,-0.68z"></path> </g> </g> </g> <g> <g> <g> <path class="fil3" d="M8164.86 3762.74c-1.26,0.32 -6.83,-21.61 -20.87,-61.73 -15.86,-39.46 -43.48,-96.5 -93.3,-160.3 -49.73,-63.44 -121.91,-133.43 -220.05,-192.72 -23.8,-16.06 -51.35,-27.4 -78.31,-41.69 -28.55,-10.67 -57.06,-24.6 -88.63,-32.02 -61.72,-18.61 -130.78,-28.61 -201.63,-19.61 -70.43,8.51 -143,33.64 -205.37,80.8 -62.88,46.1 -117.74,107.87 -164.24,178.53 -95.34,141.17 -157.39,313.17 -230.43,491.85 -38.39,88.08 -88.66,179.3 -170.54,244.48 -40.37,32.27 -88.38,57.96 -141.53,67.79 -53.1,10.03 -109.28,2.31 -159.22,-18.39 -206.52,-81.84 -298.37,-319.67 -506.96,-391.96 -102.02,-34.88 -216.11,-21.19 -309.58,25.29 -46.9,23.4 -89.13,55.51 -122.62,94.69 -33.68,38.95 -58.68,85.01 -81.79,131.33 -46.57,91.86 -81.59,194.01 -160.41,266.06 -38.68,35.4 -88.47,59.61 -140.61,63.41 -52,4.52 -103.07,-9.19 -147.19,-31.6 -88.63,-46 -154.42,-120.19 -202.46,-198.95 -47.01,-80.5 -75.66,-164.8 -107.12,-244.18 -30.81,-79.47 -62.94,-155.32 -106.04,-220.69 -43.14,-65.14 -98.71,-117.63 -162.16,-150.43 -127.33,-67.66 -269.24,-59.46 -371.7,-10.84 -105.37,45 -184.51,108.44 -235.96,170.13 -51.92,61.92 -76.19,121.34 -88.49,161.76 -12.47,40.71 -14.26,63.42 -16.08,63.1 0,0 0.12,-22.85 11.14,-64.52 10.84,-41.32 34.01,-102.49 85.78,-166.65 51.31,-63.91 131.01,-129.73 237.94,-176.88 104.42,-51.17 252.79,-61.62 385.7,7.94 66.42,33.58 125.26,88.48 170.14,155.45 44.95,67.21 78.02,144.32 109.39,223.93 31.81,79.22 61.16,163.39 106.62,240.3 46.46,75.7 110.74,146.97 193.87,189.59 41.36,20.83 87.97,32.89 134.44,28.73 46.55,-3.48 91.18,-25.21 126.51,-57.67 72.29,-65.74 107.61,-165.62 154.3,-258.99 23.45,-47.14 49.08,-94.91 85.13,-136.78 35.67,-41.83 80.55,-76.02 130.28,-100.87 99.11,-49.35 219.79,-64.02 329.01,-26.82 111.2,36.52 190.72,122.23 264.51,199.36 73.28,78.46 148.99,155.03 243.69,193.62 46.6,19.38 97.39,26.21 145.46,17.27 48.19,-8.77 92.76,-32.25 130.83,-62.53 77.25,-61.09 126.07,-148.12 164.24,-234.92 72.8,-176.29 136.59,-351.09 234.37,-494.18 47.83,-71.81 104.58,-135.2 170.27,-182.68 65.1,-48.58 141.48,-74.56 214.91,-82.77 73.89,-8.73 145.05,2.3 208.19,21.98 32.32,7.98 61.33,22.44 90.36,33.71 27.4,14.84 55.33,26.75 79.36,43.37 99.19,61.52 171.32,133.59 220.53,198.83 49.28,65.61 75.83,124.17 90.27,164.61 7.22,20.24 9.91,36.62 12.86,47.18 2.54,10.71 3.62,16.22 3.19,16.3z"></path> </g> </g> </g> <g> <g> <g> <path class="fil3" d="M3361.16 3355.62c1.32,6.9 -22.29,17.2 -52.71,22.99 -30.44,5.79 -56.16,4.89 -57.46,-2.02 -1.32,-6.9 22.27,-17.2 52.71,-22.99 30.41,-5.79 56.15,-4.88 57.46,2.02z"></path> </g> </g> </g> <g> <g> <g> <path class="fil3" d="M3441.28 3922.02c2.97,6.38 -14.82,20.94 -39.69,32.53 -24.89,11.59 -47.48,15.8 -50.45,9.42 -2.97,-6.38 14.8,-20.93 39.69,-32.51 24.89,-11.59 47.48,-15.81 50.45,-9.44z"></path> </g> </g> </g> <g> <g> <g> <path class="fil3" d="M3541.45 4540.88c2.31,6.64 -15.99,19.06 -40.89,27.75 -24.89,8.69 -46.94,10.35 -49.26,3.71 -2.31,-6.64 15.98,-19.06 40.87,-27.76 24.89,-8.68 46.94,-10.34 49.27,-3.7z"></path> </g> </g> </g> <g> <g> <g> <path class="fil3" d="M3661.64 5149.23c2.11,6.71 -18.61,19.2 -46.26,27.89 -27.66,8.69 -51.79,10.3 -53.9,3.59 -2.11,-6.71 18.6,-19.2 46.26,-27.89 27.65,-8.69 51.79,-10.3 53.9,-3.59z"></path> </g> </g> </g> <g> <g> <g> <g> <path class="fil3" d="M7080.17 2226.5c-1.37,-0.83 20.86,-7.43 59.19,-13.37 38.92,-6.72 96.06,-15.25 168.69,-25.47 145.23,-20.44 352.35,-47.3 599.4,-77.74l11.53 -1.43 1.07 11.64c19.25,208.19 41.41,447.91 64.92,702.1l0.96 10.55 1.11 12.29 -12.22 1.5c-298.48,36.55 -576.5,70.6 -810.44,99.25l-10.84 1.33 -1.15 -10.74c-22.72,-212.54 -41.68,-389.94 -55.33,-517.75 -5.75,-59.33 -10.38,-107.07 -13.85,-142.95 -2.9,-32.69 -4.01,-49.77 -3.04,-49.2 0.98,0.55 4.01,18.7 8.84,52.18 4.95,36.17 11.53,84.32 19.72,144.17 16.04,126.16 38.29,301.28 64.96,511.07l-11.99 -9.41c233.8,-29.8 511.64,-65.2 809.94,-103.21l-11.09 13.78 -0.96 -10.56c-22.48,-254.27 -43.67,-494.09 -62.08,-702.36l12.58 10.21c-465.68,52.82 -738.26,83.74 -829.94,94.13z"></path> </g> </g> </g> <g> <g> <g> <path class="fil3" d="M7832.92 2349.91c-0.19,7.53 -139.47,7.48 -309.64,25.79 -170.29,17.66 -306.48,46.75 -308.24,39.42 -1.77,-6.28 133.19,-46.85 305.56,-64.74 172.25,-18.52 312.74,-6.99 312.31,-0.47z"></path> </g> </g> </g> <g> <g> <g> <path class="fil3" d="M7841.61 2531.62c0.01,7.36 -129.85,12.35 -289.01,27.94 -159.25,15.18 -287.64,35.13 -289.04,27.9 -1.39,-6.54 125.91,-37.92 286.6,-53.25 160.59,-15.72 291.56,-9.29 291.45,-2.59z"></path> </g> </g> </g> <g> <g> <g> <path class="fil3" d="M7647.56 2690.34c0.87,6.97 -72.97,22.08 -164.93,33.73 -91.99,11.66 -167.26,15.45 -168.14,8.48 -0.89,-6.99 72.94,-22.08 164.94,-33.75 91.96,-11.66 167.24,-15.44 168.13,-8.47z"></path> </g> </g> </g> </g> </g> <g id="_2273393746032"> <g> <g> <g> <g> <path class="fil1" d="M17069.96 2744.88c-1774.9,-540.93 -3272.27,-1002.84 -5282.81,-990.06l-307.3 3160c2088.24,184.8 2786.15,321.52 4714.52,1019.37l875.58 -3189.32z"></path> </g> </g> </g> <g> <g> <g> <path class="fil2" d="M17069.96 2744.88c-1774.9,-540.93 -3272.27,-1002.84 -5282.81,-990.06l-307.3 3160c2088.24,184.8 2786.15,321.52 4714.52,1019.37l875.58 -3189.32z"></path> </g> </g> </g> </g> <g> <g> <g> <g> <g> <g> <g> <path class="fil3" d="M13051.81 3288.21l78.33 -670.43c-186.07,-21.75 -385.21,32.96 -547.36,151.4 -191,139.51 -330.37,367.46 -336.39,662.93 -0.65,32.28 0.12,65.28 2.76,99.15 0.06,0.8 0.06,1.58 0.12,2.4l0.1 -0.01 783.05 -88.02 19.38 -157.42z"></path> </g> </g> </g> </g> <g> <g> <g> <g> <path class="fil1" d="M13861.23 3178.45c-77.34,-248.7 -263.53,-463.22 -557.85,-531.65 -7.87,-1.83 -15.8,-3.59 -23.82,-5.21 -5.07,-1.03 -10.03,-2.19 -15.18,-3.12 -14.94,-2.73 -30.17,-5.07 -45.64,-7.05 -0.71,-0.08 -1.39,-0.24 -2.08,-0.32 -0.04,0 -0.08,-0.01 -0.11,-0.01 -0.65,-0.08 -1.26,-0.22 -1.91,-0.3l-0.01 0.11 0 0.01 -78.33 670.43 -18.41 157.56 739.24 269.82 0.91 0.33 0 -0.01c18.6,-55.13 31.31,-112.82 38.27,-171.61 14.87,-125.62 3.04,-256.37 -35.08,-378.96z"></path> </g> </g> </g> </g> <g> <g> <g> <g> <path class="fil4" d="M13861.23 3178.45c-77.34,-248.7 -263.53,-463.22 -557.85,-531.65 -7.87,-1.83 -15.8,-3.59 -23.82,-5.21 -5.07,-1.03 -10.03,-2.19 -15.18,-3.12 -14.94,-2.73 -30.17,-5.07 -45.64,-7.05 -0.71,-0.08 -1.39,-0.24 -2.08,-0.32 -0.04,0 -0.08,-0.01 -0.11,-0.01 -0.65,-0.08 -1.26,-0.22 -1.91,-0.3l-0.01 0.11 0 0.01 -78.33 670.43 -18.41 157.56 739.24 269.82 0.91 0.33 0 -0.01c18.6,-55.13 31.31,-112.82 38.27,-171.61 14.87,-125.62 3.04,-256.37 -35.08,-378.96z"></path> </g> </g> </g> </g> </g> <g> <g> <g> <g> <path class="fil3" d="M13062.91 3534.28l-783.05 88.02c32.56,379.17 309.4,693.67 681.23,739.44 373.67,45.99 720.1,-194.56 842.05,-557.5l-739.26 -269.82 -0.97 -0.14z"></path> </g> </g> </g> </g> </g> </g> <g> <g> <g> <path class="fil3" d="M16384.03 3347.23c-0.78,1.57 -25.38,-8.48 -69.13,-27.97 -43.6,-19.76 -107.13,-47.46 -186.04,-80.44 -157.72,-66.17 -379.1,-149.52 -629.95,-221.3 -251.04,-71.4 -483.09,-117.4 -651.98,-144.43 -84.45,-13.6 -153.01,-23.59 -200.48,-29.83 -47.44,-6.53 -73.62,-10.96 -73.47,-12.71 0.17,-1.76 26.68,-0.65 74.54,2.86 47.9,3.22 116.98,10.51 202.06,21.87 170.14,22.55 404.02,65.99 656.32,137.75 252.11,72.14 473.69,158.64 630.11,229.27 78.27,35.22 140.81,65.49 183.18,88.02 42.52,22.29 65.63,35.33 64.84,36.91z"></path> </g> </g> </g> <g> <g> <g> <path class="fil3" d="M16330.27 3677.06c-0.79,1.58 -25.38,-8.47 -69.13,-27.97 -43.6,-19.75 -107.13,-47.44 -186.04,-80.44 -157.74,-66.15 -379.12,-149.52 -629.95,-221.28 -251.04,-71.42 -483.09,-117.42 -651.98,-144.43 -84.45,-13.61 -153.01,-23.6 -200.48,-29.83 -47.44,-6.53 -73.62,-10.98 -73.47,-12.72 0.17,-1.75 26.68,-0.64 74.54,2.87 47.88,3.2 116.98,10.51 202.05,21.87 170.15,22.54 404.04,65.97 656.34,137.75 252.11,72.13 473.68,158.62 630.1,229.25 78.28,35.23 140.81,65.49 183.2,88.04 42.51,22.27 65.63,35.33 64.84,36.89z"></path> </g> </g> </g> <g> <g> <g> <path class="fil3" d="M16276.51 4006.91c-0.79,1.57 -25.39,-8.48 -69.13,-27.97 -43.62,-19.76 -107.13,-47.44 -186.04,-80.44 -157.74,-66.17 -379.12,-149.52 -629.95,-221.3 -251.04,-71.4 -483.1,-117.4 -652,-144.43 -84.43,-13.6 -153,-23.6 -200.47,-29.83 -47.44,-6.53 -73.64,-10.96 -73.47,-12.72 0.17,-1.75 26.67,-0.64 74.54,2.87 47.88,3.22 116.98,10.51 202.05,21.87 170.15,22.55 404.04,65.99 656.34,137.76 252.11,72.13 473.68,158.62 630.1,229.24 78.28,35.23 140.81,65.5 183.2,88.04 42.51,22.29 65.61,35.33 64.84,36.91z"></path> </g> </g> </g> <g> <g> <g> <path class="fil3" d="M16168.97 4336.74c-0.79,1.57 -24.63,-8.45 -66.98,-27.89 -42.2,-19.69 -103.7,-47.3 -180.11,-80.25 -152.73,-66.01 -367.22,-149.36 -610.64,-221.19 -243.61,-71.53 -469.08,-117.65 -633.25,-144.72 -82.08,-13.65 -148.73,-23.66 -194.88,-29.9 -46.12,-6.54 -71.58,-10.99 -71.42,-12.74 0.17,-1.75 25.96,-0.64 72.51,2.88 46.58,3.23 113.79,10.55 196.52,21.95 165.44,22.59 392.81,66.18 637.71,138.08 244.71,72.21 459.39,158.72 610.78,229.17 75.74,35.18 136.24,65.35 177.18,87.81 41.08,22.2 63.38,35.2 62.58,36.77z"></path> </g> </g> </g> <g> <g> <g> <path class="fil3" d="M15935.29 4599.92c-0.78,1.57 -22.29,-7.1 -60.47,-24.07 -42.76,-19.02 -96.95,-43.1 -161.59,-71.85 -136.82,-59.39 -327.7,-137.86 -546.22,-200.45 -218.72,-62.16 -422.29,-96.21 -569.85,-117.95 -70.09,-9.69 -128.8,-17.82 -175.16,-24.23 -41.4,-5.72 -64.23,-9.72 -64.07,-11.46 0.17,-1.76 23.31,-1.09 65.08,1.59 41.79,2.43 102.08,8.01 176.49,16.24 148.57,17.21 354.03,48.66 574.49,111.32 220.27,63.09 411.37,144.76 546.66,208.53 67.55,32.28 121.73,59.33 158.5,79.33 36.91,19.75 56.92,31.41 56.13,32.99z"></path> </g> </g> </g> <g> <g> <g> <path class="fil3" d="M15146.69 4637.09c-1.08,3.58 -48.94,-8.23 -126.3,-26.15 -77.35,-18.02 -184.51,-41.14 -303.86,-61.61 -119.33,-20.79 -228.12,-35.54 -306.84,-46.75 -78.76,-10.98 -127.51,-18.43 -127.18,-22.06 0.32,-3.37 49.67,-2.26 129.16,4.17 79.44,6.65 189.13,18.63 309.19,39.56 120.09,20.6 227.49,46.69 304.07,69.27 76.63,22.49 122.73,40.41 121.76,43.57z"></path> </g> </g> </g> <g> <g> <g> <path class="fil3" d="M12095.22 2129.24c0,0 13.43,-1.09 40.79,-2.13 28.74,-0.94 69.53,-2.29 122.17,-4.02 107.92,-2.63 263.93,-0.93 463.55,10.37 397.7,26.72 968.74,94.01 1628.2,291.43l8.97 2.69 -1.66 9.52c-122.3,700.35 -267.73,1533.04 -423.33,2424.03 -6.33,36.09 -12.64,72.08 -18.85,107.43l-2.38 13.64 -13.43 -3.53c-371.2,-97.49 -736.86,-170.2 -1087.13,-224.25 -350.25,-53.75 -685.2,-91.86 -996.38,-111.58l-11.95 -0.76 1.34 -11.71c85.58,-747.45 157.28,-1373.64 207.73,-1814.17 25.58,-217.93 45.76,-389.86 59.69,-508.52 7.03,-57.56 12.46,-102.16 16.27,-133.48 1.88,-14.26 3.35,-25.38 4.48,-33.91 1.07,-7.54 1.72,-11.25 1.93,-11.02 0.19,0.21 -0.04,4.38 -0.69,12.34 -0.82,8.86 -1.87,20.39 -3.23,35.19 -3.23,31.86 -7.82,77.23 -13.73,135.8 -12.61,119.35 -30.87,292.27 -54,511.45 -47.64,439.24 -115.33,1063.59 -196.13,1808.83l-10.59 -12.46c312.63,18.9 647.83,56.34 999,109.7 351.08,53.66 717.64,126.25 1089.93,223.97l-15.8 10.1c6.21,-35.36 12.52,-71.34 18.85,-107.43 156.95,-890.77 303.62,-1723.23 426.99,-2423.39l7.3 12.2c-655.63,-198.59 -1225.83,-269.17 -1622.23,-299.45 -198.59,-13.18 -356.01,-16.74 -461.48,-16.45 -52.33,0.11 -92.87,0.19 -121.45,0.25 -27.76,-0.06 -42.74,-0.64 -42.74,-0.64z"></path> </g> </g> </g> </g> <g id="_2273502403728"> <polygon class="fil5" points="10689.97,8586.83 12420.76,8970.07 12685.25,8586.83 12642.54,8093.3 12379.54,7853 11472.84,7853 10626.3,8615.35 "></polygon> <path class="fil6" d="M13329.29 5022.21l2184.7 -294.21 343.9 -97c0,0 787.45,-172.98 861,-199.23 84.97,-30.34 120.02,3.34 129.06,35.41 14.11,49.99 -33.75,105.97 -105.86,134.26 -24.93,9.77 -424.37,148.15 -424.37,148.15 0,0 39.43,6.5 134.92,38.93 95.51,32.45 187.24,155.6 233.13,299.17 45.9,143.57 46.06,187.84 -8.87,208.27 -22.06,8.2 -44.31,2.07 -63.5,-8.8 -31.35,-17.77 -54.09,-47.97 -65.54,-82.13 -76.64,-228.93 -219.92,-246.98 -219.92,-246.98l-45 12.7c0,0 147.84,103.18 145.28,228.03 -0.42,20.37 -4.84,37.98 -11.49,53.55 20.87,60.61 8.93,131.68 -31.59,181.46 -42.16,51.82 -113.21,78.42 -179.04,67.04 -31.45,-5.45 -65.5,-24.05 -70,-55.63 -2.38,-16.67 4.12,-33.18 10.13,-48.9 3.16,-8.27 6.14,-16.89 7.78,-25.57l-131 17.89c0,0 -296.47,24.49 -424.28,49.74l-2045.94 616.17c-283.66,85.43 -582.26,-78.35 -662.67,-363.47 -87.47,-310.12 119.86,-625.86 439.18,-668.85z"></path> <path class="fil6" d="M15564.64 4783.7c3.41,45.79 49.2,77.75 94.15,87.15 44.96,9.4 91.78,3.28 137.29,9.42 136.12,18.36 241.96,142.14 378.8,153.97 19.07,1.65 43.13,-2.3 48.79,-20.6 5.25,-16.95 -9.38,-33.01 -22.67,-44.75 -113.63,-100.44 -227.27,-200.85 -340.89,-301.29l-295.46 116.1z"></path> <path class="fil7" d="M15860.1 4667.6c1.18,-1.33 15.44,8.98 40.21,28.8 24.77,19.82 60.04,49.13 103.25,85.76 44.71,38.4 95.51,82.05 150.93,129.67 14.18,12.35 28.65,24.93 43.38,37.77 12.85,13.03 35.38,24.32 39.53,55.56 1.32,15.7 -10.64,31.14 -23.38,36.15 -12.56,5.64 -24.79,6.51 -36.73,6.03 -22.55,-2.13 -44.36,-5.97 -65.79,-13.04 -85.93,-27.94 -152.12,-79.89 -218.59,-110.84 -32.96,-15.99 -65.67,-27.61 -97.31,-32.33 -31.61,-4.8 -62.69,-3.8 -91.45,-5.86 -58.18,-1.39 -105.37,-26.36 -124.47,-53.79 -20.24,-27.64 -15.91,-48.49 -15.04,-47.77 2.55,-0.65 2.33,18.66 22.79,41.3 20.19,22.9 61.74,42.63 117.58,41.94 27.77,0.9 59.03,-1.32 93.54,2.86 34.51,4.19 69.91,15.97 104.54,32.02 69.63,31.31 136.57,82.19 216.14,107.72 19.64,6.56 40.11,10.03 59.4,12.03 18.85,1.33 35.08,-5.52 33.36,-15.54 -0.17,-11.21 -15.81,-25.09 -30.53,-37.85 -14.55,-13.06 -28.81,-25.86 -42.8,-38.42 -54.09,-49.16 -103.64,-94.2 -147.26,-133.86 -41.66,-38.38 -75.08,-69.78 -97.79,-91.93 -22.7,-22.13 -34.7,-35.01 -33.51,-36.37z"></path> <path class="fil7" d="M16278.95 4966.13c0.43,3.4 33.73,-14.48 85.94,-1.14 25.52,6.65 53.01,23.84 74.83,51.41 22.23,27.32 38.96,63.1 53.75,102.08 15,38.96 29.29,77.38 49.78,108.94 20.44,31.32 45.14,55.98 71.49,68.8 26.53,13.43 53.05,9.09 66.84,1.52 14.25,-7.6 19.61,-14.8 19.17,-15.27 -0.94,-1.34 -7.83,4.06 -21.72,9.27 -13.72,5.11 -36.05,6.99 -58.92,-6.07 -22.73,-12.56 -45.28,-36.49 -63.81,-66.46 -18.63,-30.14 -32.11,-67.43 -47.22,-106.79 -14.97,-39.39 -32.89,-77.03 -57.49,-105.86 -24.09,-29.2 -55.72,-47.46 -83.89,-53.05 -28.23,-6.1 -51.75,-2.38 -66.76,2.07 -15.15,4.63 -22.4,9.7 -22,10.56z"></path> <path class="fil7" d="M16769.73 4590.09c-0.96,-2.19 -31.07,8.91 -79.6,26.98 -54.11,19.9 -118.58,43.59 -189.85,69.8 -71.68,25.14 -136.52,47.87 -190.92,66.94 -48.94,16.92 -79.22,27.51 -78.57,29.81 0.6,2.15 32.1,-4.44 82.12,-18.5 50.02,-14.01 118.43,-35.73 193.02,-62.49 74.55,-26.8 141.15,-53.55 188.66,-74.58 47.54,-20.96 76.03,-35.92 75.13,-37.96z"></path> <path class="fil7" d="M16221.14 5087.89c-0.86,0.96 5.92,7.64 17.2,19.94 10.51,11.95 27.89,32.35 24.68,60.15 -1.48,13.46 -10.8,25.31 -25.77,32.36 -14.61,7.44 -32.92,10.33 -52.81,14.57 -19.4,4.1 -43.44,11.02 -58.97,31.6 -14.79,20.21 -17.93,47.61 -9.94,71.85 8.14,24.86 27.98,42.99 49.13,52.72 21.45,9.72 44.05,13.39 65.83,9.74 40.97,-8.18 74.08,-23.46 101.33,-37.8 26.97,-14.77 46.96,-30.35 58.36,-43.53 11.41,-13.28 14.34,-22.83 13.61,-23.08 -1.34,-0.73 -6.08,7.35 -18.25,18.5 -12.21,11.13 -32.33,24.59 -59.13,37.57 -26.74,12.5 -60.52,26.43 -98.33,33.1 -35.22,5.13 -83.19,-12.64 -96.66,-52.47 -6.53,-19.5 -3.74,-41.72 7.23,-56.88 11.09,-15.23 30.3,-21.97 49.23,-26.31 18.99,-4.53 38.78,-7.97 55.83,-17.3 17.21,-8.34 30.41,-26.08 31.06,-43.34 1.83,-34.77 -20.01,-55.22 -31.86,-66.1 -13.04,-11.23 -21.09,-16.06 -21.79,-15.31z"></path> <path class="fil7" d="M16174.44 5360.26c-0.14,-0.8 -9.38,0.03 -21.7,10.2 -11.82,9.85 -26.42,31.09 -24.46,60.75 1.97,29.02 23.05,61.62 57.92,77.61 34.66,16.22 78.43,15.87 118.64,1.68 40.39,-14.33 73.41,-41.26 94.19,-71.82 21.19,-30.6 29.76,-63.89 31.74,-91.31 1.98,-27.66 -2.49,-49.88 -7.07,-64.41 -4.7,-14.59 -9.19,-21.83 -10.1,-21.45 -3.19,0.72 11.64,32.49 5.39,84.7 -3.33,25.64 -12.52,56.08 -32.56,83.59 -19.71,27.54 -50.28,51.83 -87.19,64.92 -36.71,13.01 -76.37,13.47 -106.66,0.07 -30.38,-13.04 -49.52,-40.46 -52.51,-64.84 -3.15,-24.7 7.8,-44.61 17.2,-54.79 9.7,-10.55 17.78,-13.57 17.19,-14.9z"></path> <path class="fil7" d="M15810.79 5180.66c1.48,-0.4 -0.72,-15.76 -14.04,-37.85 -13.03,-21.73 -39.19,-50.02 -79.62,-65.07l0.85 14.77c16.09,-7.66 33.08,-16.92 49.95,-27.66 94.33,-59.53 140.99,-139.65 137.02,-141.15 -3.92,-3.3 -55.15,69.85 -146,127.02 -16.33,10.39 -32.63,19.54 -48.01,27.39l-16.99 8.65 17.85 6.11c36.62,12.54 62.17,36.74 76.67,55.66 14.75,19.13 20.26,32.93 22.33,32.13z"></path> <path class="fil7" d="M16491.2 4947.28c-3.19,-3.09 -26.28,22.42 -28.81,62.73 -2.9,40.3 16.55,68.69 20.12,66.05 4.41,-2.09 -6.15,-29.87 -3.42,-64.92 2.01,-35.09 16.19,-61.2 12.11,-63.87z"></path> <path class="fil6" d="M6296.35 5707.59c0,0 -319.12,-517.2 -375.6,-561.05 -56.48,-43.84 -561.69,-228.84 -604.82,-215.25 -43.14,13.6 -655.38,118.18 -585.07,190.86 70.3,72.67 497.21,-6.21 497.21,-6.21l57.28 28.65c0,0 -368.78,58.76 -446.43,103.64 -71.46,41.3 -46.97,128.78 20.58,121.81 67.55,-7 387.99,-69.02 407.04,-55.85 19.04,13.17 -348.6,86.44 -388.17,109.82 -53.26,31.49 -58.6,126.15 8.61,121.51 39.62,-2.73 386.38,-92.25 386.38,-92.25 0,0 -274.96,105.94 -300.3,129.99 -41.5,39.38 -8.59,99.25 50.95,86.11 40.89,-9.02 235.11,-101.6 289.9,-113.55 0,0 51.14,13.69 97.6,117.22 21.68,48.3 120.33,349.66 300.78,345.71 159.86,-3.48 316.79,128.28 316.79,128.28l267.25 -439.45z"></path> <path class="fil7" d="M4732.07 5123.7c-1.03,3.3 40.28,20.55 111.56,30.82 35.54,5 78.51,7.82 126.15,5.27 46.79,-5.23 97.92,-12.45 151.71,-19.86 39.68,-5.81 77.97,-11.41 114.18,-16.7l-6.89 -0.64c150.97,53.83 261.67,88.87 263.98,82.82 2.33,-6.03 -104.58,-51.34 -254.66,-108.69l-3.02 -1.16 -3.88 0.53c-35.92,4.85 -73.9,9.98 -113.29,15.29 -52.42,7.68 -102.38,15 -149.96,21.95 -45.79,3.88 -87.4,3.27 -122.23,0.96 -69.74,-4.84 -112.54,-14.91 -113.65,-10.59z"></path> <path class="fil6" d="M6057.17 5646.26c-37.31,34.66 -98.61,26.11 -142.25,-0.15 -43.63,-26.25 -77.07,-66.51 -118.71,-95.85 -124.5,-87.7 -303.84,-66.89 -423.99,-160.45 -16.74,-13.04 -33.32,-34.4 -24.13,-53.53 8.52,-17.74 32.51,-19.76 52.18,-19.29 168.09,4.05 336.18,8.09 504.27,12.14l152.64 317.14z"></path> <path class="fil7" d="M5904.54 5329.13c0.06,-1.98 -19.32,-4.34 -54.4,-6.92 -35.06,-2.56 -85.85,-5.34 -148.59,-8.15 -65.31,-2.48 -139.5,-5.31 -220.46,-8.39 -20.83,-0.65 -42.08,-1.33 -63.74,-2.02 -20.26,0.91 -47.09,-6.92 -74.04,15.37 -12.9,11.77 -14.83,33.35 -8.23,47.01 5.95,14.05 15.25,23.98 25.31,32.6 19.94,15.27 40.57,28.58 63.31,39.01 90.92,42.06 183.89,49.76 261.25,74.7 38.86,11.86 74.22,27.08 103.49,47.09 29.31,19.93 53.82,44.18 78.74,64.18 48.34,42.74 105.54,58.04 141.76,50.14 37.28,-7.21 49.49,-27.43 48.25,-27.51 -1.59,-2.44 -15.97,13.42 -49.67,16.4 -33.68,3.38 -82.33,-11.89 -127.2,-54.57 -23.24,-20.21 -46.98,-45.57 -78.2,-68.2 -31.2,-22.63 -68.85,-39.75 -109.12,-52.81 -80.19,-27.05 -172.98,-36.17 -256.9,-75.41 -20.9,-9.48 -40.17,-22.09 -57.35,-35.01 -16.33,-13.14 -24.35,-30.93 -15.41,-37.78 8.59,-8.99 31.77,-8.47 53.37,-7.76 21.65,0.36 42.92,0.72 63.75,1.05 81.02,0.82 155.27,1.57 220.62,2.22 62.81,0.22 113.66,-0.11 148.81,-0.98 35.15,-0.87 54.62,-2.3 54.66,-4.28z"></path> <path class="fil8" d="M8781.78 17159.71l-116.57 1282.64 -384.71 987.9c-27.72,71.2 10.63,151 83.55,173.81 40.84,12.78 84.99,5.24 119.03,-20.69 216.63,-165.01 1010.5,-776.03 1013.77,-870.38 3.78,-109.26 212.77,-1344.8 212.77,-1344.8l-927.83 -208.48z"></path> <path class="fil9" d="M8364.04 19604.06l1142.64 -977.42 -6.17 54.22c-5.36,46.86 -26.94,90.39 -61.38,122.62 -92.14,86.22 -351.77,318.74 -952.2,780.38 -34.93,26.86 -81.22,34.5 -122.89,20.21z"></path> <path class="fil9" d="M9291.13 18183.91c-34.58,18.53 -50.59,65.82 -33.51,101.13 17.08,35.31 65.03,52 99.94,34.11 34.88,-17.89 55.85,-74.09 34.93,-107.27 -20.91,-33.18 -78.29,-49.71 -107.88,-23.96l6.53 -4.01z"></path> <path class="fil3" d="M8720.26 19078.31c-7.65,2.72 -28.86,-67.61 -100.86,-112.32 -70.66,-46.87 -143.41,-36.89 -144.11,-44.97 -0.75,-3.27 16.58,-11.38 47.01,-12.18 30.17,-1 72.97,8.14 112.39,33.36 39.31,25.34 65.43,60.44 77.07,88.29 11.95,28.01 11.78,47.14 8.5,47.83z"></path> <path class="fil3" d="M8609.57 19239.27c-6.72,4.85 -43.03,-41.44 -107.07,-67.94 -63.44,-27.93 -121.98,-22.15 -123.13,-30.35 -2.94,-6.96 61.74,-27.08 134.24,4.35 72.82,30.62 103,91.27 95.95,93.94z"></path> <path class="fil3" d="M8914.95 18878.01c-6.68,5.39 -62.22,-66.07 -158.17,-116 -95.19,-51.45 -185.47,-57.32 -184.76,-65.89 -1.3,-7.05 95.8,-14 198.03,40.89 102.76,53.84 151.49,138.12 144.9,141.01z"></path> <path class="fil3" d="M8982.98 18491.08c-4.3,7.28 -71.61,-30.32 -163.22,-44.13 -91.43,-15.07 -167.05,-0.01 -168.89,-8.27 -2.81,-6.65 74.99,-35.62 173.3,-19.67 98.4,15.08 163.54,66.58 158.82,72.07z"></path> <path class="fil3" d="M9026.72 18115.43c-4.81,6.94 -71.02,-43.81 -168.69,-50.45 -97.53,-8.8 -170.89,30.89 -174.55,23.27 -1.77,-2.91 14.01,-17.38 45.46,-31.06 31.21,-13.73 78.76,-24.48 131.32,-20.4 52.53,4.25 97.79,22.33 126.46,40.82 28.88,18.45 42.22,35.23 40,37.82z"></path> <path class="fil3" d="M8868.44 17993.74c-1.64,-0.15 -2.56,-17.68 3.78,-48.59 6.35,-30.67 20.55,-75.26 52.92,-122.39 16.52,-22.19 34.41,-51.11 72.04,-63.89 18.74,-6.49 44.82,-0.18 58.07,18.5 13.15,18.2 15.54,39.75 13.65,60.07 -10.6,81.09 -89.28,151.69 -181.96,152.95 -92.89,-0.39 -170,-62.23 -198.34,-136.5 -5.88,-19.07 -8.84,-41.95 3.56,-62.45 12.24,-20.71 39.25,-26.42 57.21,-21.18 37.37,9.99 58.83,34.62 79.3,53.43 40.05,40.47 63.09,80.86 75.99,109.37 12.93,28.69 16.17,45.92 14.62,46.44 -4.86,2.84 -25.17,-66.53 -104.49,-141.41 -20.15,-17.44 -43.2,-39.24 -70.27,-44.89 -13.18,-2.83 -25.25,1.15 -31.24,11.36 -6.07,9.77 -5.23,26.14 0.07,41.19 24.16,60.89 94.79,117.25 173.31,116.37 78.1,-0.26 147.19,-62.45 156.32,-127.62 1.98,-15.72 -0.4,-32.04 -7.75,-42.35 -7.23,-10.13 -19.56,-14.1 -31.89,-10.66 -26.04,7.19 -45.79,32.18 -62.01,52.99 -64.63,87.81 -67.37,161.2 -72.92,159.27z"></path> <path class="fil3" d="M9961.11 17912.1l959.85 -7600.68 -306.95 -1766.82 -1810.15 95.98 -225.41 9131.14c-1.83,68.09 45.82,127.52 112.68,140.56l1054.22 162.52c104.9,16.17 202.46,-57.41 215.77,-162.7z"></path> <path class="fil3" d="M10893.44 10566.34l1745.73 1727.75 -2511.86 610.88 178.8 1267.32 3399.97 -462.72c290.57,-39.54 552.17,-196.61 723.65,-434.48 263.26,-365.16 269.8,-856.05 16.35,-1228.1l-2648.63 -3888.12 -1183.46 385.73 279.44 2021.74z"></path> <path class="fil10" d="M10797.02 10126.66c6.87,-1.5 34.03,95.71 60.65,217.14 26.64,121.47 42.66,221.13 35.79,222.63 -6.86,1.51 -34.03,-95.7 -60.65,-217.17 -26.62,-121.42 -42.65,-221.09 -35.79,-222.6z"></path> <path class="fil10" d="M10542.67 13064.62c0,0 13.94,-5.18 41.48,-13.9 28.4,-8.81 69.16,-21.45 122.26,-37.93 108.31,-32.93 266.24,-80.95 468.47,-142.45 406.7,-122.32 990.98,-298.05 1704.61,-512.69l-4.39 16.22c-590.9,-629.28 -1308.6,-1393.57 -2095.59,-2231.67l21.62 -7.12c-41.5,350.65 -84.83,716.83 -129.03,1090.32 -216.11,1810.36 -419.18,3448.2 -576.38,4632.43 -77.99,592.18 -146.75,1070.67 -196.96,1400.93 -27.95,164.71 -46.36,293.1 -65.4,379.12 -9.12,42.44 -16.12,74.99 -21.04,97.85 -4.88,22.01 -8,33.1 -8,33.1 0,0 1.44,-11.55 5.47,-33.72 4.32,-22.95 10.49,-55.63 18.52,-98.24 17.38,-86.05 34.23,-214.8 60.65,-379.59 47.19,-330.61 113.22,-809.35 188.91,-1401.79 152.61,-1184.69 352.84,-2822.83 568.95,-4633.11 44.32,-373.45 87.77,-739.6 129.38,-1090.22l3.19 -26.85 18.45 19.72c785.52,839.48 1501.87,1605.01 2091.68,2235.33l10.95 11.7 -15.33 4.53c-714.66,211.18 -1299.78,384.08 -1707.07,504.42 -202.88,59.29 -361.32,105.6 -469.99,137.35 -53.44,15.29 -94.48,27.03 -123.06,35.2 -27.83,7.79 -42.33,11.07 -42.33,11.07z"></path> <path class="fil10" d="M9977.61 17768.71c-6.99,-0.89 192.4,-1614.06 445.27,-3602.67 252.95,-1989.3 463.59,-3600.68 470.58,-3599.8 6.97,0.9 -192.37,1613.72 -445.32,3603.01 -252.85,1988.6 -463.55,3600.34 -470.52,3599.45z"></path> <path class="fil10" d="M10609.9 9322.34c3.3,-0.91 19.1,43.99 40.47,117.82 21.37,73.8 47.95,176.63 72.96,291.19 24.96,114.61 43.6,219.18 54.88,295.18 11.3,76.02 15.62,123.42 12.24,123.97 -3.55,0.58 -14.16,-45.75 -29.96,-120.79 -17.77,-83.88 -38.79,-183.18 -62.04,-292.95 -24.55,-109.44 -46.76,-208.46 -65.53,-292.13 -16.85,-74.8 -26.5,-121.34 -23.02,-122.3z"></path> <path class="fil10" d="M10722.15 9173.41c-2.74,-1.47 24.5,-23.81 70.91,-7.64 21.69,7.65 47.39,29.29 52.96,62.53 5.88,31.52 -5.72,71.34 -39.58,92.55 -34.72,20.19 -75.73,11.32 -100.32,-9.88 -26.49,-21.8 -30.12,-57.06 -22.66,-78.97 6.92,-23.06 21.43,-37.41 32.67,-43.62 11.42,-6.39 18.86,-6.24 19.25,-4.84 2.31,3.26 -26.68,13.57 -34.43,52.69 -3.66,18.57 0.86,42.2 20.14,56.66 18.24,14.66 49.45,19.87 72.17,6.17 22.83,-13.87 33.1,-43.49 29.6,-67.01 -2.86,-24.1 -19.93,-41.3 -37.03,-49.81 -35.8,-17.5 -62.8,-4.74 -63.67,-8.84z"></path> <path class="fil10" d="M13153.31 12589.93c-5.28,5.79 -103.55,-84.75 -244.98,-166.25 -140.88,-82.52 -268.2,-123.02 -265.79,-130.47 1.16,-6.14 134.44,24.13 278.58,108.47 144.61,83.41 236.94,184.19 232.19,188.26z"></path> <path class="fil8" d="M9380.06 3363.53l-1002.31 483.88 432.03 3015.57 -169.72 1353.58c-21.87,174.42 44.36,348.31 176.74,463.98l1618.73 -31.9 1133.6 -623.24 520.59 -87.98 -213.17 -1030.24 95.51 -1461.58 1184.84 632.62c91.28,48.73 197.55,61.41 297.75,35.49l2172.2 -561.77 -112.84 -836.93 -1966.44 222.32 -1497.56 -1323.23 -1114.63 -250.58 -198.73 -328.35 -1140.56 0 -79.75 59.82c-38.13,28.59 -66.83,67.94 -82.42,112.98l-53.84 155.55z"></path> <path class="fil8" d="M8377.74 3847.41c0,0 -328.81,208.25 -451.32,588.71 -114.58,355.75 -373.09,1794.69 -373.09,1794.69l-1138.76 -706.65 -656.32 689.83 1518.18 1338.77c232.73,205.21 565.72,251.11 845.27,116.48l0.01 0c233.34,-112.37 394.76,-334.28 429.8,-590.9l186.33 -1364.44 -360.1 -1866.5z"></path> <polygon class="fil6" points="11797.46,8158.87 11726.92,8055.12 10977.43,8193.63 10839.47,8512.97 "></polygon> <path class="fil8" d="M8816.79 8680.55c669.67,269.51 1384.84,170.42 2022.68,-167.58 192.54,-102.03 371.09,-229.02 564.45,-329.5 193.37,-100.48 407.99,-174.89 625.36,-159.65 217.37,15.25 436.74,135.26 523.66,335.08 86.91,199.83 0.1,471.82 -204.64,546.4 24.14,21.59 48.3,43.17 72.46,64.77 300.7,-139.95 443.27,-544.9 296.58,-842.37 -112.51,-228.18 -348.93,-364.13 -522.17,-550.43 -254.73,-273.94 -281.28,-804.08 -282.89,-1216.71l-3095.49 2319.99z"></path> <path class="fil3" d="M10285.99 3946.48c-0.15,1.37 -17.66,2.33 -49.34,2.83 -30.19,5.23 -79.83,11.52 -118.69,54.63 -38.88,41.63 -60.33,111.9 -59.21,191.23 0.14,78.96 15.5,169.77 54.36,256.44l18.85 42.06 -36.89 -27.34c-83.82,-62.13 -170.39,-137.21 -252.52,-223.32 -193.37,-201.88 -323.11,-423.94 -388.22,-594.44 -34.21,-84.85 -51.61,-157.03 -62.99,-206.65 -8.93,-50.3 -13,-78.11 -11.27,-78.4 5.71,-1.37 19.89,111.61 90.93,278.29 68.63,166.8 198.93,384.13 389.95,583.6 81.13,85.06 166.29,159.59 248.47,221.7l-18.03 14.72c-20.9,-45.82 -33.39,-92.24 -41.76,-137.14 -8.29,-44.89 -12.64,-88.49 -11.2,-129.8 0.39,-82.13 24.66,-157.14 68.85,-201.26 44.42,-45.53 97.75,-49.35 128.89,-52.24 32.68,1.95 49.96,3.71 49.81,5.07z"></path> <path class="fil8" d="M10346.08 3946.48c82.46,-35.56 204.69,16.96 263.94,84.46 39.15,44.61 61.15,106.55 112.75,135.88 51.85,29.47 214.6,52.03 262,15.83 0,0 28.94,-139.26 44.14,-196.93 60.16,-228.39 86.04,-435.94 111.43,-668.98 -157.79,-76.31 -114.29,-177.04 -397.98,-157.81 0,0 71.07,209.43 9.9,400l-406.18 387.54z"></path> <path class="fil3" d="M10752.27 3558.94c-2.67,-0.75 10.33,-37.81 16.47,-107.2 4.99,-68.87 1.51,-171.9 -35.27,-289.76l-3.66 -11.74 11.93 -0.68c62.6,-3.53 135.02,-9.15 209.31,18.88 37.3,14.18 67.93,43.24 96.63,69.6 28.99,26.67 60.79,50.41 97.95,67.82l7.66 3.59 -0.9 8.62c-12.6,118.74 -27.05,248.35 -49.49,382.14 -14.75,87.41 -32.35,172.22 -52.81,253.02 -20.53,80.7 -36.55,158.28 -53.89,231.8l-1.15 4.82 -3.2 2.08c-28.26,18.25 -56.87,19.11 -83.74,20.4 -27.05,0.6 -53.19,-1.54 -78.49,-5.07 -25.28,-3.65 -49.73,-8.68 -73.19,-15.94 -23.2,-6.89 -47.14,-18.16 -64.25,-34.98 -34.76,-33.24 -52.57,-72.79 -75.34,-103.35 -22.11,-30.87 -49.85,-53.21 -77.02,-70.02 -54.65,-33.71 -106.32,-44.23 -140.7,-43.95 -34.82,0.32 -52.38,9.51 -53.03,7.47 0,0 16.42,-12.14 52.75,-14.95 35.81,-2.69 90.17,5.96 148.2,39.33 28.76,16.56 59,39.54 83.41,72.01 24.41,31.61 43.44,70.41 74.84,99.03 30.56,28.43 79.22,36.51 127.25,43.92 24.35,3.1 49.53,4.82 74.88,3.98 24.81,-0.83 52.35,-4.2 70.28,-16.42l-4.34 6.89c16.7,-73.86 32.53,-152.82 52.57,-233.09 19.93,-80.23 37.23,-164.37 51.85,-251.21 22.29,-132.89 37.16,-261.99 50.56,-380.53l6.75 12.18c-39.15,-18.59 -73.68,-44.85 -103.06,-72.44 -29.44,-27.54 -56.27,-53.39 -89.49,-66.5 -66.47,-26.29 -137.99,-22.95 -199.52,-20.36l8.27 -12.39c35.76,122.56 36.02,226.72 27.86,296.86 -4.84,35.09 -11.03,61.92 -16.7,79.65 -5.82,17.7 -9.3,26.78 -10.17,26.5z"></path> <path class="fil3" d="M9314.29 8926.17c-1.44,2.22 -39.1,-18.68 -89.17,-66.43 -50.03,-47.39 -109.7,-124.5 -150.99,-222.21 -40.94,-97.89 -54.29,-194.48 -53.12,-263.37 0.91,-69.2 12.34,-110.7 14.93,-110.18 4.32,0.57 -0.61,42.56 3.06,109.73 3.45,67.05 19.11,159.45 58.61,253.96 39.89,94.31 94.92,170.15 140.43,219.54 45.42,49.62 78.88,75.48 76.26,78.97z"></path> <path class="fil3" d="M9278.62 8545.33c7.29,1.93 -6.22,64.7 0.82,141.83 6.11,77.24 30.06,136.81 23.2,139.94 -5.54,3.46 -41.86,-55.05 -48.58,-137.78 -7.37,-82.64 18.5,-146.48 24.56,-143.99z"></path> <path class="fil3" d="M8796.12 6794.78c-0.87,0.12 -2.9,-7.78 -5.93,-22.94 -3.31,-18.11 -7.29,-40.05 -12.1,-66.48 -10.35,-61.81 -24.23,-144.54 -41.05,-244.95 -34.39,-206.87 -83.06,-492.39 -141.63,-806.86 -58.71,-314.56 -116.2,-598.46 -158.68,-803.82 -20.48,-99.73 -37.37,-181.89 -49.96,-243.28 -5.04,-26.37 -9.23,-48.27 -12.68,-66.36 -2.63,-15.25 -3.59,-23.34 -2.73,-23.53 0.85,-0.19 3.49,7.51 7.73,22.38 4.71,17.8 10.44,39.35 17.34,65.32 14.59,56.82 34.43,139.39 57.91,241.64 47,204.5 107.34,488.12 166.11,802.98 58.63,314.77 104.54,601.05 134.4,808.75 14.94,103.85 26.21,188.01 33.07,246.3 2.92,26.71 5.35,48.87 7.36,67.18 1.4,15.4 1.72,23.55 0.86,23.67z"></path> <path class="fil3" d="M11925.55 6794.78c-0.87,0 -1.7,-8.33 -2.45,-24.2 -0.57,-18.82 -1.25,-41.73 -2.08,-69.42 -1.48,-60.29 -1.7,-147.54 -0.96,-255.36 2.04,-215.61 11.45,-513.62 36.41,-841.79 24.79,-328.28 57.97,-624.38 83.46,-838.41 13.17,-103.97 24,-189.54 32.07,-253.24 4.02,-27.41 7.36,-50.09 10.09,-68.7 2.59,-15.68 4.37,-23.85 5.24,-23.76 0.87,0.1 0.8,8.47 -0.14,24.32 -1.46,18.77 -3.22,41.61 -5.34,69.23 -6.04,63.92 -14.16,149.78 -24.03,254.1 -20.9,214.48 -51.21,510.6 -75.96,838.37 -24.93,327.64 -37.14,624.93 -43.81,840.24 -2.92,104.71 -5.32,190.89 -7.12,255.06 -1.08,27.68 -1.97,50.57 -2.7,69.37 -0.9,15.87 -1.79,24.2 -2.67,24.2z"></path> <path class="fil3" d="M8015.92 6920.77c-8.63,3.8 -73.04,-174.41 -197.67,-368.04 -125.51,-193.66 -271.22,-315.51 -264.93,-321.9 1.97,-2.31 40.32,25.43 95.8,78.06 55.36,52.58 126.47,131.89 190.44,229.93 63.78,98.1 108.6,194.24 137.33,264.8 28.56,70.75 42.02,115.99 39.01,117.16z"></path> <path class="fil3" d="M8100 6708.26c-3.98,1.61 -20.58,-37.24 -54.83,-95.17 -34.29,-57.74 -89.88,-133.02 -169.03,-197.86 -79.18,-64.78 -162.78,-107.36 -223.71,-136.3 -61.33,-28.54 -100.41,-44.39 -99.1,-48.11 1,-2.92 42.22,6.92 106.21,31.57 63.5,25.04 150.7,66.04 232.77,133.16 82.08,67.19 137.68,147.52 168.6,208.78 30.98,61.62 41.63,102.99 39.08,103.92z"></path> <path class="fil11" d="M14171.6 5913.23c-1.15,0.93 -12.5,-10.33 -29.74,-33.57 -17.09,-23.21 -38.81,-60.11 -53.4,-110.61 -14.04,-50.57 -17.27,-114.26 -7.39,-182.16 9.81,-68.15 27.97,-140.04 49.59,-215.84 46.76,-151.35 120.91,-274.36 174.98,-360.89 27.44,-43.27 50.71,-77.52 67.25,-100.87 16.58,-23.35 26.47,-35.77 27.94,-34.84 3.19,2 -28.83,56.64 -79.76,145 -49.94,88.54 -120.51,211.47 -166.05,359.05 -21.14,74.05 -40.08,146.36 -50.73,211.82 -10.8,65.68 -9.45,125.71 1.62,174.33 24.57,97.38 71.09,145.53 65.69,148.59z"></path> <path class="fil11" d="M15097.39 4788.27c1.68,-0.53 6.85,11.91 14.79,35.02 8.39,22.97 17.09,57.39 24.67,100.48 15.48,86.04 19.53,209.36 -9.19,340.68 -29.23,131.25 -84.82,241.42 -135.06,312.95 -25.02,35.9 -47.4,63.46 -64.67,80.76 -16.94,17.62 -26.86,26.72 -28.16,25.54 -3.41,-3.02 32.45,-43.17 77.74,-116.14 45.46,-72.67 96.81,-180.84 125.29,-308.6 27.93,-127.84 26.87,-247.57 16.23,-332.62 -10.38,-85.25 -26,-136.78 -21.63,-138.08z"></path> <path class="fil12" d="M8487.29 5056.62c49.3,534.07 11.14,1076.1 -112.51,1597.98 -26.29,110.97 -56.63,222.72 -54.57,336.73 2.05,114.02 72.69,245.97 162.6,316.11 81.23,-186.91 82.69,-367.29 116.88,-568.81 30.82,-181.66 82.44,-605.35 82.55,-611.6 7.19,-370.92 -80.37,-688.5 -222.78,-1022.52l27.83 -47.9z"></path> <path class="fil12" d="M9408.93 3451.51c71.54,392.02 267.8,760.3 553.3,1038.29 108.17,105.32 242.56,202.74 393.46,197.89 -86.51,-177.18 -113.45,-382.82 -75.51,-576.3 129.49,81.59 259.99,163.71 402.7,219.02 142.7,55.31 300.09,82.76 449.84,51.17 31.32,-270.86 62.65,-541.72 93.97,-812.57 3.56,-30.71 6.67,-63.77 -8.41,-90.74 -15.09,-26.98 -56.27,-40.97 -77.48,-18.49 -8.98,9.51 -12.27,22.87 -15.22,35.59 -55.11,237.42 -85.71,449.87 -140.81,687.27 -39.53,39.21 -161.35,23.01 -241.55,-6.58 -69.87,-25.78 -96.67,-83.59 -142.93,-141.94 -46.26,-58.35 -38.02,-48.11 -106.57,-77.2 -125.94,-53.47 -368.06,-10.88 -420.78,102.31 -52.74,113.21 -12.83,262.21 22.27,373.34 -349.48,-225.86 -609.43,-586.44 -713.26,-989.4l26.96 8.33z"></path> <path class="fil12" d="M12075.06 4598.24c-9.84,19.67 304.48,1079.58 304.48,1079.58l-407.49 -232.22 103 -847.36z"></path> <path class="fil6" d="M9544.1 1522.85l-0.01 1687.68c0,96.44 34.08,189.75 96.2,263.51 95.27,113.09 210.04,208.17 338.9,280.73l340.43 191.71 281.59 -251.4c82.82,-73.94 131.92,-178.39 136.32,-289.33 4.88,-122.96 4.85,-246.81 4.85,-246.81 0,0 477.09,-34.25 521.88,-504.73 21.09,-221.52 27.77,-675.24 28.94,-1093.34 1.32,-477.05 -364.48,-874.89 -839.88,-914.23l-13.44 -1.11c-492.35,-11.93 -897.46,384.84 -895.77,877.33z"></path> <path class="fil7" d="M10742.37 3158.94c0,0 -298.3,-7.15 -598.19,-232.04 0,0 123.45,356.95 596.91,353.45l1.29 -121.41z"></path> <path class="fil3" d="M11153.92 1863.3c-1.68,35.62 -33.24,63.56 -70.48,62.49 -37.14,-1.08 -65.97,-30.75 -64.28,-66.37 1.68,-35.62 33.22,-63.62 70.38,-62.55 37.23,1.08 66.05,30.81 64.38,66.43z"></path> <path class="fil3" d="M11172.96 1750.69c-9.06,8.08 -56.89,-33.85 -129.28,-39.65 -72.22,-6.82 -128.41,26.01 -135.53,16.51 -3.53,-4.24 6.28,-19.38 30.8,-34.3 24.14,-14.89 64.32,-27.97 109.39,-24.05 45.06,3.99 81.61,23.71 101.99,42.51 20.84,18.92 27.07,35.4 22.63,38.99z"></path> <path class="fil3" d="M10471.29 1828.98c-1.69,35.62 -33.25,63.56 -70.46,62.49 -37.17,-1.08 -66,-30.75 -64.32,-66.39 1.69,-35.61 33.25,-63.6 70.42,-62.53 37.23,1.08 66.04,30.82 64.36,66.43z"></path> <path class="fil3" d="M10460.45 1705.31c-9.08,8.07 -56.98,-33.85 -129.3,-39.64 -72.22,-6.83 -128.44,26 -135.56,16.48 -3.51,-4.24 6.21,-19.36 30.82,-34.27 24.14,-14.9 64.31,-27.98 109.38,-24.07 45.07,3.99 81.61,23.73 102.01,42.52 20.79,18.9 27.05,35.4 22.65,38.99z"></path> <path class="fil3" d="M10678.69 2263.79c0,-4.14 45.64,-8.19 119.3,-11.49 18.64,-0.37 36.44,-2.59 40.59,-14.95 5.46,-12.99 -0.62,-33.55 -7.8,-55.8 -13.68,-46.15 -27.98,-94.54 -43.01,-145.25 -59.32,-206.65 -100.62,-375.93 -92.28,-378.26 8.34,-2.31 63.19,163.29 122.51,369.95 14.16,50.91 27.75,99.44 40.64,145.89 5.24,21.59 15.31,46.4 3.58,73.33 -6.11,13.4 -20.51,22.3 -32.63,24.5 -12.14,2.63 -22.56,1.97 -31.74,1.77 -73.69,-2.13 -119.22,-5.57 -119.16,-9.7z"></path> <path class="fil3" d="M10461.55 2296.22c11.84,0.28 5.47,78.86 68.11,140.18 62.48,61.5 146.95,59.61 146.66,70.64 0.69,5.02 -19.92,13.72 -55.34,11.75 -34.76,-1.68 -84.47,-17.02 -122.8,-54.52 -38.18,-37.59 -52.04,-84.67 -52.06,-117.13 -0.28,-33.08 10.09,-51.82 15.43,-50.92z"></path> <path class="fil3" d="M10502.61 1423.23c-8.76,19.08 -80.25,3.78 -166,6.99 -85.83,1.48 -156.36,20.68 -166.18,2.09 -4.31,-8.86 9.15,-26.39 38.42,-43.14 29.01,-16.74 74.29,-31.2 125.73,-32.67 51.43,-1.34 97.43,10.62 127.33,25.75 30.13,15.13 44.53,31.9 40.69,40.98z"></path> <path class="fil3" d="M11163.69 1539.03c-14.1,15.4 -62.53,-5.79 -122.41,-11.56 -59.68,-7.87 -111.63,1.87 -121.9,-16.29 -4.44,-8.77 4.92,-24.57 28.4,-38.29 23.13,-13.71 60.75,-23.35 101.84,-18.7 41.08,4.71 75.53,22.56 94.99,41.14 19.79,18.64 25.35,36.15 19.07,43.7z"></path> <path class="fil3" d="M10098.16 1048.76c-0.91,0.61 -1.83,1.22 -2.74,1.82 -79.89,53.01 -136.56,134.62 -157.53,228.17 -0.75,3.3 -1.44,6.43 -2.11,9.4 -29.53,132.8 -37.52,269.74 -68.34,402.25 -30.82,132.5 -25.14,233.77 -157.86,263.62 -83.73,18.85 -154.96,-27.75 -184.82,-75.08 -11.55,-18.31 -11.79,-41.3 -11.68,-62.95 1.75,-326.42 -63.91,-453.18 -35.23,-792.31 7.82,-92.29 58.43,-175.34 137.93,-222.9 75.22,-45 166.3,-90.6 242.1,-46.72 76.02,44 165.84,200.09 221.84,267.77l18.45 26.94z"></path> <path class="fil6" d="M9685.23 1749.1c-7.73,-4.14 -315.67,-122.51 -332.03,200.33 -16.37,322.83 311.12,272.66 312.15,263.43 1.03,-9.23 19.89,-463.76 19.89,-463.76z"></path> <path class="fil7" d="M9572.93 2085.55c-1.36,-1.09 -5.82,3.66 -15.55,7.53 -9.48,3.77 -25.56,5.9 -42.08,-1.26 -33.47,-14.25 -59.44,-69.85 -58.06,-128.1 0.67,-29.42 8.25,-57.1 19.82,-79.72 11.06,-23.13 27.16,-38.85 44.5,-41.02 17.27,-3.09 28.91,7.8 32.4,17.09 3.87,9.24 1.48,15.59 3.17,16.23 0.86,0.85 7.21,-5.06 5.28,-18.53 -1.01,-6.47 -4.41,-14.28 -11.67,-20.86 -7.44,-6.69 -18.67,-10.48 -30.7,-9.8 -24.98,0.46 -48.55,22.22 -61.27,47.08 -14.11,24.89 -23.31,55.94 -24.06,88.98 -1.23,65.15 28.98,127.72 74.97,143.57 22.4,7.08 41.7,1.19 51.88,-5.93 10.39,-7.47 12.46,-14.59 11.36,-15.25z"></path> <path class="fil3" d="M9842.87 802.98c-68.59,-135.37 163.9,-302.36 326.96,-339.31 163.06,-36.94 365.98,57.85 519.78,123.38 97.04,41.36 192.66,95.77 298.06,100.12 70.68,2.92 140,-17.12 208.41,-35.12 68.4,-18 139.4,-34.23 209.34,-23.62 69.94,10.63 139.26,54.02 160.55,121.49 21.29,67.44 -24.35,153.69 -94.98,157.61 93.16,-41.59 216.75,33.43 222.89,135.27 6.15,101.84 -107.44,191.18 -204.98,161.24 48.66,-30.91 114.11,32.22 103.73,88.92 -10.38,56.7 -65.65,94.01 -120.18,112.76 -139.15,47.84 -294.14,16.08 -429.23,-42.22 -135.12,-58.27 -257.97,-141.81 -391.59,-203.43 -133.62,-61.63 -356.93,-170.85 -499.26,-133.54 -104.79,27.47 -185.8,144.25 -241.07,112.43 -53.4,-30.77 -83.81,-91.89 -89.91,-153.22 -6.1,-61.33 7.75,-122.71 21.5,-182.78z"></path> <path class="fil10" d="M11510.6 901.89c-2.55,-1.83 -18.56,22.44 -56.26,57.16 -37.7,34.05 -100.09,77.79 -188.44,100.36 -86.79,22.45 -202.21,22.48 -306.02,-37.84 -105.47,-58.07 -191.03,-164.01 -291.25,-265.47 -99.86,-102.2 -221.2,-181.77 -347.5,-203.78 -125.51,-22.52 -246.23,14.19 -316.71,81.13 -70.99,67.61 -90.82,149.75 -90.28,202.09 0.14,26.76 5.24,47.01 8.98,60.33 4.75,13.13 7.89,19.67 8.9,19.31 3.05,-0.76 -8.2,-28.36 -5.46,-79.26 3.1,-49.56 25.64,-125.54 93.03,-185.73 66.6,-59.46 179.15,-91.47 296.26,-68.92 117.72,22.12 232.69,97.63 330.23,197.44 98.33,99.18 186.61,207.98 299.58,268.61 112.29,63.21 236.17,60.37 326.17,33.86 92.03,-26.6 154.99,-75.34 191.15,-113.22 17.99,-19.32 30.7,-35.43 37.73,-47.39 7.4,-11.7 10.8,-18.07 9.88,-18.68z"></path> <path class="fil10" d="M9604.41 1728.26c1.09,1.19 14.61,-7.71 28.88,-32.27 14.37,-24.13 27.41,-64.81 25.72,-115.38 1.46,-104.32 -81.06,-223.25 -80.87,-367.54 -1.26,-71.36 16.85,-139.36 51.54,-189.24 34.41,-49.76 84.39,-79.86 128.23,-93.47 44.35,-14.28 83.25,-11.2 108.69,-5.72 25.53,6.26 38.95,13.44 40.36,10.98 0.86,-1.25 -10.46,-12.32 -36.77,-22.87 -26.08,-9.72 -68.77,-16.88 -118.35,-4.13 -48.99,12.14 -105.53,42.7 -146.18,98.22 -40.33,54.97 -60.84,129.99 -59.44,206.61 0.22,76.93 22.33,148.33 45.29,208.07 22.79,60.01 41.54,113.62 44.95,160.34 9.18,95.78 -36.66,144.47 -32.06,146.4z"></path> </g> <g id="_2273390423920"> <g> <g> <g> <path class="fil1" d="M10399.54 11052.92c0,0 -24.64,1.07 -72.75,1.88 -48.51,0.68 -119.94,1.66 -213.48,2.97 -187.65,3.01 -464.37,10.15 -820.35,27.62 -355.9,18.5 -791.05,49.84 -1294.02,107.29 -251.27,30.2 -519.79,64.7 -802.93,111.74 -283.37,45.28 -581.6,101.69 -892.13,172.41 -310.5,70.6 -633.65,155.06 -964.06,262.88 -329.76,108.71 -668.93,237.8 -999.72,412.45 -165.37,87.08 -327.1,188.2 -479.43,306.21 -151.08,118.56 -293.74,257.9 -392.53,429.44 -11.92,21.59 -24.75,42.8 -35.99,64.79l-27.66 68.95 -13.89 34.55c-3.83,11.78 -6.04,24.06 -9.15,36.08l-17.45 72.62c-11.46,98.35 -15.15,200.92 14.65,298.33 47.86,198.23 178.66,369.01 328.58,512.72 306.37,287.73 697.07,487.98 1102.21,655.95 407.5,167.24 839.43,297.45 1284.24,406.23 890.41,216.96 1834.19,344.66 2803.33,412.82 970.05,66.19 1921.29,65.68 2836.34,11.12 914.91,-55.66 1794.65,-166.43 2618.52,-341.67 411.63,-88.51 809.12,-193.65 1187.3,-320.24 378.31,-125.64 736.35,-277.29 1061.26,-462.33 160.65,-95.3 312.77,-199.3 447.42,-318.7 133.97,-119.16 251.55,-255.71 324,-412.45l24.03 -59.68c7.89,-19.87 17.01,-39.31 20.69,-60.37l14.93 -61.81c2.26,-10.31 5.47,-20.46 6.94,-30.87l2.51 -31.48c11.68,-83.7 3.1,-167.31 -18.38,-246.62 -22.13,-79.51 -61.16,-152.03 -103.36,-220.74 -46.07,-66.4 -95.42,-129.77 -151.42,-185.94 -110.2,-114 -233.16,-209.79 -357.87,-294.97 -124.94,-85.14 -252.33,-159.77 -379.34,-226.15 -253.21,-134.58 -503.56,-238.65 -739.6,-329.22 -473.53,-178.64 -894.44,-295.56 -1239.85,-382.25 -345.7,-86.43 -617.18,-140.83 -801.45,-176.1 -92,-18.36 -162.57,-30.14 -209.82,-39.15 -47.29,-8.75 -71.42,-13.87 -71.42,-13.87 0,0 97.54,14.33 282.2,48 184.62,33.64 456.54,86.5 802.87,171.51 346.05,85.28 767.73,200.89 1242.5,378.55 236.69,90.1 487.77,193.76 742.13,328.22 127.56,66.3 255.61,140.95 381.4,226.3 125.57,85.42 249.57,181.59 361.22,296.65 56.69,56.69 106.93,120.84 153.86,188.32 43.14,69.92 83.16,143.92 106.08,225.66 22.29,81.43 31.21,168.19 19.39,253.92l-2.58 32.32c-1.48,10.69 -4.74,21.09 -7.04,31.68l-15.2 63.42c-3.83,21.61 -13.06,41.5 -21.09,61.84l-24.5 61.08c-73.83,160.27 -193.05,298.79 -328.2,419.38 -135.87,120.8 -288.95,225.7 -450.41,321.75 -326.46,186.45 -685.57,338.96 -1064.75,465.31 -379.03,127.3 -777.25,232.98 -1189.51,321.96 -825.16,176.18 -1705.96,287.56 -2621.95,343.64 -916.11,54.95 -1868.34,55.66 -2839.58,-10.62 -970.32,-68.26 -1915.36,-196.28 -2807.5,-413.99 -445.7,-109.17 -878.63,-239.87 -1287.57,-407.99 -406.63,-168.95 -799.12,-369.98 -1109.2,-661.49 -151.67,-145.68 -285.24,-319.62 -334.58,-524 -30.48,-100.33 -26.87,-206.38 -14.77,-307.75l18 -74.79c3.2,-12.38 5.53,-25.03 9.48,-37.13l14.26 -35.47 28.48 -70.73c11.52,-22.52 24.63,-44.18 36.84,-66.25 101.19,-175.2 245.95,-315.93 398.51,-435.43 153.86,-118.93 316.72,-220.45 482.99,-307.74 332.6,-175.07 672.84,-304 1003.53,-412.49 331.31,-107.56 655.12,-191.61 966.17,-261.75 311.09,-70.25 609.77,-126.14 893.53,-170.85 283.51,-46.46 552.33,-80.33 803.88,-109.89 503.51,-56.13 939,-86.04 1295.14,-103.05 356.23,-15.95 633.08,-21.5 820.78,-22.84 93.57,-0.19 165.03,-0.35 213.55,-0.44 48.11,0.04 72.75,0.72 72.75,0.72z"></path> </g> </g> </g> <g> <g> <g> <path class="fil1" d="M6403.91 7348.45c0,0 -27.77,6.2 -82.24,17.05 -54.41,11.06 -135.64,26.1 -241.56,48.84 -212.04,44.14 -524.43,112.11 -921.29,220.55 -395.79,110.35 -879.35,257.14 -1411.37,498.93 -132.64,60.91 -268.27,127.69 -403.8,204.66 -135.64,76.59 -272.72,161.12 -405.28,259.98 -132.05,99.04 -261.96,210.49 -374.14,343.88 -111.11,132.93 -209.71,287.39 -253.63,465.07 -47.18,175.98 -33.78,371.47 40.21,547.55 72.31,177.26 195.02,335.03 338.49,473.39 289.36,277.58 656.7,487.86 1047.58,668.77 787.46,357.8 1686.87,597.75 2641.31,776.89 956.04,177.13 1973.26,286.7 3030.22,334.24 1057,46.51 2154.72,33.21 3273.13,-58.34 1118.14,-93.15 2205.83,-257.32 3229.43,-526.19 511.1,-135.41 1006.53,-297.47 1470.86,-505.02 231.55,-104.58 455.94,-219.72 664.5,-354.69 208.05,-134.8 403.18,-287.91 559.84,-472.29 155.93,-182.24 270.91,-405.99 277.59,-641.73 2.66,-29.23 -1.14,-58.29 -3.04,-87.36 -3.44,-28.86 -1.47,-58.46 -9.27,-86.59l-19.06 -84.9c-4.85,-28.68 -18.89,-54.65 -27.84,-82.05 -37.91,-109.56 -102.06,-206.7 -167.77,-299.82 -140.37,-181.26 -314.6,-329.43 -495.97,-458.17 -182.39,-128.31 -375.12,-234.73 -567.77,-331.88 -387.5,-190.99 -779.91,-336.95 -1162.82,-456.42 -383,-119.86 -756.67,-214.81 -1115.62,-294.32 -1439.02,-310.43 -2632.11,-394.79 -3452.34,-440.36 -410.91,-21.32 -730.46,-22.23 -947,-27.71 -108.04,-2.36 -190.51,-4.17 -246.38,-5.38 -55.51,-1.36 -83.93,-2.72 -83.93,-2.72 0,0 28.43,-0.39 83.95,0.11 55.88,0.64 138.36,1.59 246.44,2.86 216.6,3.81 536.27,3.13 947.41,22.94 820.75,42.56 2014.62,124.17 3455.71,432.67 359.49,79.04 733.81,173.58 1117.64,293.16 383.76,119.19 777.21,265 1166.33,456.27 193.49,97.31 387.17,203.99 570.89,332.98 182.71,129.45 358.69,278.62 501.27,462.41 66.89,94.52 132.21,193.31 171.18,305.41 9.22,28.04 23.48,54.57 28.56,83.99l19.6 87.07c7.96,28.86 6.11,59.28 9.62,88.92 1.98,29.85 5.82,59.71 3.15,89.74 -3.41,120.27 -34.5,239.45 -84.82,349.82 -49.52,110.99 -118.79,212.79 -197.79,306.2 -158.76,187.08 -355.48,341.46 -564.79,477.26 -209.82,135.96 -435.14,251.7 -667.51,356.8 -465.93,208.52 -962.42,371.1 -1474.44,506.96 -1025.44,269.69 -2114.38,434.18 -3233.74,527.44 -1119.59,91.64 -2218.31,104.78 -3276.31,57.88 -1057.99,-47.93 -2076.22,-158.11 -3033.41,-336.08 -955.62,-180.05 -1856.22,-421.01 -2645.84,-780.79 -391.99,-181.98 -760.71,-393.35 -1052.43,-673.84 -144.61,-139.83 -268.83,-299.69 -342.28,-480.37 -75.15,-179.44 -88.65,-379.73 -40.19,-559.11 45.15,-181.2 145.55,-337.61 258.02,-471.7 113.59,-134.58 244.57,-246.48 377.54,-345.81 133.47,-99.12 271.23,-183.71 407.49,-260.26 136.14,-76.95 272.26,-143.59 405.32,-204.32 533.73,-241.09 1018.17,-386.59 1414.68,-495.56 397.58,-107.05 710.44,-173.48 922.88,-216.02 212.5,-42.49 324.83,-60.86 324.83,-60.86z"></path> </g> </g> </g> <g> <g> <g> <path class="fil1" d="M8117.86 14726.8c-16.77,2.65 -88.78,14.01 -243.89,38.47 -159.77,25.65 -395.18,66.12 -695.49,131.8 -299.71,67.18 -666.04,156.47 -1077.18,303.69 -204.96,74.59 -421.83,162.43 -640.45,278.27 -109.55,57.34 -218.76,123.05 -325.04,198.71 -105.97,75.83 -209.18,162.45 -298.77,266.04 -43.74,52.44 -85.56,108.09 -117.97,170.07 -34.58,60.75 -58.64,128.06 -72.86,197.75 -2.77,17.59 -6.93,35.05 -8.61,52.86l-3.13 53.79c0.3,35.9 4.55,72.07 7.8,108.2 9.6,35.08 14.8,71.71 28.07,106.03l20.68 51.38 10.38 25.78 13.75 24.28c70.09,131.8 175.43,245.68 293.78,345.77 118.36,100.97 253.28,185.83 393.93,264.36 282.07,157.17 595.05,278.37 921.87,384.83 327.5,105.57 671.94,190.4 1027.79,262.75 712.22,143.43 1471.92,231.41 2261.49,270.3 789.64,37.91 1610.07,28.66 2445.5,-42.58 835.17,-72.29 1647.63,-200.19 2408.77,-415.12 379.53,-109.41 746.87,-240.33 1085.26,-413.53 168.12,-88.01 329.08,-186.8 472.1,-304.95 37.34,-27.68 68.65,-61.97 103.06,-92.55 33.66,-31.42 62.22,-67.57 93.44,-100.94 55.11,-72.46 108.35,-147.51 139.07,-232.47 72.67,-166.59 54.57,-358.48 -21.58,-515.55 -79.91,-157.13 -203.79,-284.8 -336.76,-392.07 -269.24,-214.19 -575.19,-358.27 -873.92,-478.28 -299.99,-119.66 -599.34,-209.83 -889.58,-284.93 -290.39,-74.98 -572.37,-133.94 -842.98,-181.48 -1083.5,-189.31 -1976.12,-223.83 -2589.87,-236.96 -609.24,-3.34 -919.99,-5.06 -954.79,-5.24 0,0 339.93,-4.34 954.87,-0.71 614.01,11.31 1507.05,44.17 2591.68,232.27 270.89,47.23 553.21,105.93 844.04,180.7 290.68,74.87 590.54,164.87 891.31,284.57 299.53,120.07 606.43,264.15 877.67,479.58 133.95,107.98 259.29,236.67 340.71,396.48 77.79,159.73 96.39,356.87 22.3,526.78 -31.36,86.69 -85.33,162.86 -141.16,236.31 -31.53,33.78 -60.46,70.38 -94.43,102.1 -34.66,30.88 -66.35,65.53 -103.91,93.43 -144.1,119.14 -305.81,218.43 -474.55,306.87 -339.62,173.98 -707.7,305.24 -1087.87,414.96 -762.39,215.5 -1575.66,343.61 -2411.59,415.95 -836.19,71.31 -1657.25,80.44 -2447.52,42.31 -790.23,-39.14 -1550.57,-127.48 -2263.55,-271.47 -356.25,-72.62 -701.09,-157.76 -1029.1,-263.75 -327.35,-106.9 -640.91,-228.56 -923.92,-386.54 -141.12,-78.96 -276.55,-164.28 -395.66,-266.08 -119.04,-100.9 -225.34,-215.85 -296.33,-349.64l-13.9 -24.66 -10.55 -26.21 -20.96 -52.24c-13.42,-34.91 -18.77,-72.25 -28.43,-107.97 -3.34,-36.82 -7.58,-73.71 -7.84,-110.28l3.26 -54.81c1.75,-18.13 5.97,-35.92 8.83,-53.83 14.54,-70.93 39.14,-139.32 74.22,-200.83 32.96,-62.77 75.27,-118.94 119.48,-171.83 90.53,-104.4 194.48,-191.33 301.02,-267.38 106.86,-75.84 216.54,-141.6 326.46,-198.93 219.37,-115.81 436.74,-203.4 642.12,-277.72 411.95,-146.65 778.72,-235.14 1078.8,-301.46 300.66,-64.82 536.3,-104.36 696.26,-129.03 160.01,-24.73 244.37,-35.44 244.37,-35.44z"></path> </g> </g> </g> <g> <g> <g> <path class="fil1" d="M14502.34 19197.88c-3.74,1.03 6.31,-66.21 -40.58,-178.11 -45.46,-112.14 -166.8,-251.48 -357.98,-377.54 -384.27,-252.88 -1026.41,-465.25 -1834.87,-595.09 -404.65,-65.82 -852.24,-111.07 -1333.92,-130.64 -481.61,-19.71 -997.64,-14.62 -1538.03,28.3 -270.15,21.37 -546.35,52.54 -826.53,97.1 -280.03,44.89 -564.72,100.75 -848.98,179.07 -142.31,38.34 -284.4,82.67 -425.05,134.37 -140.63,51.6 -280.26,110.06 -414.87,180.85 -134.19,70.96 -264.51,154.17 -376.05,260.27 -110.99,103.73 -201.45,244.14 -203.63,400.99 1.86,156.93 92.17,297.5 203.11,401.37 111.51,106.18 241.85,189.46 376.05,260.48 134.65,70.85 274.31,129.35 414.97,180.96 140.67,51.74 282.79,96.07 425.13,134.44 284.34,78.36 569.09,134.23 849.18,179.14 280.23,44.56 556.48,75.74 826.67,97.13 540.46,42.92 1056.56,48.01 1538.19,28.29 481.72,-19.58 929.33,-64.84 1333.96,-130.67 808.46,-129.85 1450.55,-342.24 1834.76,-595.12 191.15,-126.04 312.45,-265.38 357.88,-377.51 46.89,-111.89 36.84,-179.09 40.58,-178.08 -0.51,7.36 -1.37,19.81 -3.22,46.71 -0.01,15.63 -4.62,34.36 -10.15,56.67 -3.88,22.8 -13.69,47.57 -25.34,75.52 -45.02,112.86 -166.33,253.17 -357.58,379.99 -384.41,254.46 -1026.87,468.05 -1835.8,598.93 -404.87,66.33 -852.74,112.03 -1334.76,131.99 -481.94,20.11 -998.38,15.34 -1539.29,-27.36 -270.41,-21.27 -546.91,-52.36 -827.43,-96.88 -280.39,-44.85 -565.49,-100.7 -850.29,-179.11 -142.57,-38.4 -284.97,-82.78 -425.97,-134.62 -140.99,-51.71 -281.05,-110.34 -416.22,-181.45 -134.76,-71.31 -265.8,-154.94 -378.41,-262.14 -55.56,-53.86 -107.5,-113.51 -144.14,-183.1 -37.53,-68.56 -61.59,-146 -62.09,-225.58 0.55,-79.58 24.88,-156.93 62.48,-225.4 36.76,-69.51 88.62,-129.16 144.28,-182.91 112.62,-107.11 243.65,-190.68 378.38,-261.92 135.16,-71.06 275.17,-129.66 416.13,-181.34 140.98,-51.78 283.33,-96.17 425.88,-134.55 284.73,-78.38 569.77,-134.2 850.11,-179.04 280.48,-44.5 556.92,-75.59 827.29,-96.86 540.83,-42.69 1057.21,-47.46 1539.12,-27.37 481.98,19.96 929.85,65.64 1334.72,131.97 808.92,130.86 1451.45,344.44 1835.91,598.9 191.28,126.82 312.63,267.14 357.66,380.02 11.64,27.97 21.47,52.74 25.35,75.53 5.52,22.31 10.13,41.04 10.15,56.69 1.84,26.9 2.7,39.35 3.22,46.71z"></path> </g> </g> </g> <g> <g> <path class="fil1" d="M3700.02 11614.47c0,86.19 -69.88,156.09 -156.09,156.09 -86.21,0 -156.1,-69.89 -156.1,-156.09 0,-86.22 69.89,-156.1 156.1,-156.1 86.21,0 156.09,69.88 156.09,156.1z"></path> </g> </g> <g> <g> <path class="fil1" d="M17817.37 11720.25c0,86.21 -69.88,156.09 -156.09,156.09 -86.21,0 -156.1,-69.88 -156.1,-156.09 0,-86.22 69.89,-156.1 156.1,-156.1 86.21,0 156.09,69.88 156.09,156.1z"></path> </g> </g> <g> <g> <path class="fil1" d="M11450.5 17472.14c0,86.21 -69.88,156.09 -156.1,156.09 -86.21,0 -156.09,-69.88 -156.09,-156.09 0,-86.22 69.88,-156.1 156.09,-156.1 86.22,0 156.1,69.88 156.1,156.1z"></path> </g> </g> <g> <g> <path class="fil1" d="M6710.25 13460.67c0,43.1 -34.94,78.04 -78.04,78.04 -43.1,0 -78.04,-34.94 -78.04,-78.04 0,-43.1 34.94,-78.04 78.04,-78.04 43.1,0 78.04,34.94 78.04,78.04z"></path> </g> </g> <g> <g> <path class="fil1" d="M16416.3 15352.16c0,43.1 -34.94,78.04 -78.04,78.04 -43.1,0 -78.04,-34.94 -78.04,-78.04 0,-43.1 34.94,-78.04 78.04,-78.04 43.1,0 78.04,34.94 78.04,78.04z"></path> </g> </g> <g> <g> <path class="fil1" d="M10254.92 18961.98c0,43.1 -34.94,78.04 -78.04,78.04 -43.1,0 -78.06,-34.94 -78.06,-78.04 0,-43.1 34.95,-78.04 78.06,-78.04 43.1,0 78.04,34.94 78.04,78.04z"></path> </g> </g> </g> <g id="_2273390443264"> <g> <path class="fil1" d="M6220.2 5297.52c0,21.66 -17.56,39.22 -39.22,39.22 -21.66,0 -39.22,-17.56 -39.22,-39.22 0,-21.66 17.56,-39.22 39.22,-39.22 21.66,0 39.22,17.56 39.22,39.22z"></path> </g> </g> <g id="_2273390398720"> <g> <g> <path class="fil1" d="M13217.93 11301.7c-1895.66,501.87 -3722.81,463.8 -5714.25,0l-232.51 -3640.2c2057.78,400.6 4123.59,349.89 5946.75,-86.11l0 3726.31z"></path> </g> </g> <g> <g> <g> <path class="fil2" d="M13217.93 11301.7c-1895.66,501.87 -3722.81,463.8 -5714.25,0l-232.51 -3640.2c2057.78,400.6 4123.59,349.89 5946.75,-86.11l0 3726.31z"></path> </g> </g> <g> <g> <g> <path class="fil3" d="M12924.1 10748.16c0.17,0.4 -3.85,2.43 -11.86,5.99 -9.41,3.99 -21.18,8.99 -35.77,15.19 -31.77,12.57 -77.86,33.17 -139.01,54.98 -121.34,46.17 -299.85,105.85 -524.6,164.64 -448.59,119.75 -1089.06,215.1 -1798.49,205.21 -709.72,-9.2 -1346.67,-106.77 -1802.21,-192.84 -228.02,-43.28 -411.52,-83.31 -537.89,-112.68 -63.27,-14.33 -112.12,-26.67 -145.29,-34.83 -15.34,-3.99 -27.71,-7.21 -37.61,-9.77 -8.44,-2.34 -12.71,-3.76 -12.61,-4.19 0.1,-0.43 4.56,0.14 13.19,1.65 10.05,1.91 22.61,4.32 38.17,7.3 35.34,7.28 84.24,17.37 146.27,30.14 126.97,26.39 310.87,63.68 539.03,104.65 455.86,81.44 1091.73,175.92 1799.25,185.1 707.21,9.84 1345.35,-82.27 1793.75,-197.19 224.62,-56.38 403.51,-113.29 525.67,-156.5 61.56,-20.35 108.17,-39.42 140.49,-50.45 14.97,-5.23 27.04,-9.45 36.69,-12.83 8.33,-2.76 12.67,-3.96 12.83,-3.56z"></path> </g> </g> </g> <g> <g> <path class="fil3" d="M10139.02 10896.63c-237.84,70.21 -481.87,51.67 -729.92,-24.42l0 -1295.68c243.31,-48.95 486.61,-48.95 729.92,0l0 1320.1z"></path> </g> </g> <g> <g> <g> <path class="fil3" d="M11317.12 10819.47c-0.29,-0.19 -0.62,-3.55 -1,-9.97 -0.32,-7.6 -0.71,-16.85 -1.19,-28.2 -0.72,-26.37 -1.7,-62.4 -2.95,-108.17 -1.9,-95.7 -4.6,-231.95 -8,-402.36 -5.17,-343.8 -12.4,-824.97 -20.8,-1382.77l9.74 11.78c-232.33,-47.77 -493.75,-49.69 -755.33,0.58l10.34 -12.65c0.11,8.11 0.21,16.92 0.32,25.74 7.75,765.7 14.73,1457.3 19.72,1951.13l-7.07 -8.57c116.64,24.41 223.82,37.24 318.09,38.74 94.29,1.9 175.25,-7.37 240.28,-19.6 65.11,-12.36 114.18,-28.15 147.37,-38.71 15.15,-5.28 27.32,-9.52 36.95,-12.89 8.55,-2.87 13.17,-4.31 13.53,-4.07 0.36,0.24 -3.53,2.15 -11.66,5.82 -9.67,4.14 -21.88,9.37 -37.1,15.88 -32.81,12.14 -81.74,29.55 -147.16,43.51 -65.32,13.82 -147.05,24.63 -242.36,24.06 -95.3,-0.17 -203.74,-11.89 -321.5,-35.37l-7 -1.39 -0.1 -7.19c-6.94,-493.82 -16.66,-1185.37 -27.44,-1951.06 -0.11,-8.8 -0.21,-17.62 -0.3,-25.72l-0.14 -10.66 10.51 -2.01c264.5,-50.82 529.63,-48.55 764.93,0.57l9.67 2.02 0.08 9.78c4.2,560.43 7.83,1043.84 10.42,1389.25 0.44,169.56 0.8,305.13 1.05,400.38 -0.24,44.96 -0.42,80.33 -0.54,106.23 -0.24,10.89 -0.42,19.79 -0.57,27.1 -0.22,6.03 -0.49,9.01 -0.79,8.8z"></path> </g> </g> </g> <g> <g> <path class="fil3" d="M12438.87 10666.95c-195.45,105.78 -452.6,119.8 -729.92,103.88l0 -2139.87c248.5,-52.81 492.78,-62.74 729.92,0l0 2035.99z"></path> </g> </g> <g> <g> <g> <path class="fil3" d="M8980.15 10790.6c-0.82,-0.85 -1.62,-19.93 -2.49,-54.81 -0.72,-37.68 -1.68,-87.65 -2.87,-149.6 -1.4,-130.25 -3.35,-310.51 -5.67,-525.49l7.12 10.31c-195.42,-71.67 -440.06,-139.76 -702.68,-116.67l-1.29 0.1 11.53 -12.67c-0.64,267.02 -1.23,517.13 -1.73,729.89l-6.74 -10.13c98.83,41.86 195.81,64.06 281.77,80.41 86.3,15.56 162.43,24.49 225.23,30.71 60.5,5.13 109.28,9.27 146.08,12.39 32.08,2.63 50.88,4.89 51.74,5.56 0.86,0.64 -16.45,1.46 -52.04,1.21 -33.9,-0.68 -83.63,-2.08 -146.84,-6.36 -63.19,-4.35 -139.91,-11.59 -227.27,-25.77 -87.05,-15.02 -185.55,-36.09 -287.17,-77.88l-6.72 -2.77 -0.01 -7.37c-0.51,-212.76 -1.11,-462.87 -1.75,-729.89l-0.03 -11.82 11.59 -0.86 1.32 -0.1c268.88,-23.55 516.55,47.18 712.81,121.4l7.22 2.73 -0.08 7.58c-2.31,217.91 -4.25,400.65 -5.67,532.68 -1.19,60.9 -2.15,110.02 -2.87,147.04 -0.87,33.6 -1.66,51.03 -2.48,50.19z"></path> </g> </g> </g> <g> <g> <g> <g> <path class="fil3" d="M9323.52 8897.2c0.04,3.38 -54.5,7.4 -142.78,8.79 -88.29,1.41 -210.35,-0.37 -344.88,-8.25 -134.56,-7.96 -256,-20.5 -343.51,-32.25 -87.52,-11.74 -141.2,-22.12 -140.77,-25.47 0.47,-3.62 54.9,0.44 142.68,7.57 87.79,7.15 209.02,16.81 343.09,24.74 134.05,7.84 255.56,12.47 343.58,15.66 88.01,3.22 142.56,5.56 142.59,9.22z"></path> </g> </g> </g> <g> <g> <g> <path class="fil3" d="M9214.77 9056.48c-0.17,3.51 -48.02,3.04 -125.29,-0.58 -77.27,-3.6 -183.94,-10.35 -301.67,-19.38 -117.77,-9.04 -224.25,-18.63 -301.16,-26.83 -76.92,-8.2 -124.27,-15.04 -123.89,-18.53 0.36,-3.49 48.37,-3.01 125.62,0.61 77.28,3.6 183.81,10.35 301.36,19.36 117.52,9.01 223.82,18.59 300.74,26.79 76.91,8.22 124.43,15.05 124.28,18.56z"></path> </g> </g> </g> <g> <g> <g> <path class="fil3" d="M9481.81 9265.27c-0.62,-0.67 -0.37,-16.33 0.61,-45.43 1.22,-31.21 2.88,-73.23 4.98,-126.09 5.21,-110.49 12.56,-265.97 21.57,-456.94l9.31 9.83c-351.29,4.5 -829.43,-12.03 -1350.8,-74.9 -12.78,10.62 17.2,-14.51 14.12,-11.85l-0.01 0.17 -0.01 0.33 -0.04 0.64 -0.07 1.3 -0.15 2.58 -0.3 5.17 -0.6 10.34 -1.21 20.64 -2.38 41.11c-1.59,27.33 -3.19,54.51 -4.77,81.52 -3.17,54.02 -6.31,107.37 -9.4,159.9 -6.26,105.01 -12.34,206.76 -18.13,304.12l-10.6 -12.68c390.62,48.09 728.14,68.51 967.39,77.74 117.78,3.55 212.26,6.4 279.99,8.44 30.45,0.96 54.83,1.72 73.66,2.31 17.05,0.73 26.37,1.25 26.85,1.76 0.47,0.5 -7.84,1.03 -24.75,1.79 -16.65,0.71 -43.08,1.84 -75.8,2.18 -65.26,0.96 -160.52,1.08 -280.41,-1.48 -239.69,-5.03 -578.13,-22.26 -969.83,-68.77l-11.24 -1.33 0.64 -11.35c5.49,-97.38 11.23,-199.15 17.14,-304.18 3.01,-52.54 6.06,-105.89 9.15,-159.91 1.57,-27.01 3.12,-54.19 4.7,-81.52l2.37 -41.11 1.21 -20.64 0.6 -10.34 0.3 -5.17 0.14 -2.59 0.08 -1.29 0.04 -0.65 0.01 -0.32 0.01 -0.17c-3.1,2.51 26.96,-22.63 14.32,-11.97 520.21,62.73 996.98,81.84 1347.68,81.62l9.99 -0.01 -0.67 9.84c-13.26,193.01 -24.05,350.15 -31.72,461.8 -3.98,51.92 -7.15,93.19 -9.51,123.84 -2.34,28.04 -3.84,42.4 -4.46,41.75z"></path> </g> </g> </g> </g> <g> <g> <g> <path class="fil3" d="M9648.29 9539.82c-6.17,3.46 -46.73,-55.72 -94.04,-130.52 -47.5,-75.11 -78.54,-140.61 -72.44,-144.04 6.15,-3.46 46.71,55.72 94.04,130.53 47.47,75.08 78.54,140.59 72.44,144.03z"></path> </g> </g> </g> </g> </g> <g id="_2273394031344"> <g> <g> <path class="fil1" d="M1727.59 4799.53l619.7 3748.84c0,0 945.75,1771.05 3459.22,2170.23l-405.59 -3346.5c0,0 -2324.27,-718.77 -3673.34,-2572.58z"></path> </g> </g> <g> <g> <path class="fil2" d="M1727.59 4799.53l619.7 3748.84c0,0 945.75,1771.05 3459.22,2170.23l-405.59 -3346.5c0,0 -2324.27,-718.77 -3673.34,-2572.58z"></path> </g> </g> <g> <g> <g> <path class="fil3" d="M5482.31 10451.43c-0.12,0.42 -5.53,-0.85 -15.98,-3.73 -11.71,-3.4 -26.97,-7.83 -46.24,-13.4 -42.06,-12.82 -101.44,-30.91 -177.14,-53.97 -76.53,-24.63 -171.96,-49.78 -277.86,-93.03 -53.47,-20.36 -110.57,-42.11 -171.07,-65.14 -60.71,-22.77 -124.88,-46.83 -189.75,-78.09 -130.81,-59.93 -276.15,-121.48 -423.84,-204.55 -151.32,-76.12 -304.83,-172.36 -465.31,-274.6 -317.69,-209.52 -643.29,-478.75 -933.92,-809.36 -129.34,-150.07 -246.23,-305.26 -336.9,-470.01l-0.86 -1.55 -0.33 -2.13c-113.07,-730.55 -212.4,-1372.38 -283.76,-1833.4 -34.33,-228.71 -61.92,-412.49 -81.2,-540.84 -8.83,-62.17 -15.76,-110.88 -20.71,-145.65 -1.98,-15.59 -3.56,-28.04 -4.8,-37.8 -0.96,-8.52 -1.25,-12.9 -0.87,-12.96 0.39,-0.07 1.46,4.2 3.16,12.6 1.82,9.67 4.12,22 7.03,37.43 5.96,34.62 14.3,83.1 24.96,145 21.03,128.08 51.14,311.45 88.62,539.68 73.51,460.68 175.84,1102.05 292.33,1832.05l-1.19 -3.67c88.72,160.63 205.51,315.96 333.79,464.6 288.71,328.42 612.08,596.85 927.68,806.5 159.43,102.31 311.88,198.84 462.23,275.49 146.7,83.6 291.16,145.89 421.14,206.69 64.45,31.7 128.23,56.26 188.55,79.54 60.11,23.64 116.85,45.94 169.97,66.83 105.19,44.42 200.01,70.91 275.96,96.95 75.04,24.99 133.87,44.59 175.55,58.46 18.96,6.6 33.97,11.82 45.5,15.84 10.21,3.7 15.38,5.81 15.26,6.22z"></path> </g> </g> </g> <g> <g> <g> <path class="fil3" d="M5261.37 9363.26c0.22,0.29 -2.67,2.92 -8.58,7.83 -6.9,5.54 -15.66,12.58 -26.61,21.39 -24.93,19.42 -59.83,46.58 -104.52,81.37 -93.08,71.29 -226.8,173.72 -394.75,302.36l-6.22 4.75 -4.63 -6.4c-132.83,-183.76 -296.64,-410.34 -482.81,-667.89l14.77 2.48c-116.28,82.8 -240.49,171.24 -370.16,263.57l-12.34 8.79 -5.25 -14.23c-144.46,-391.82 -306.48,-831.26 -477.19,-1294.22 -23.01,-62.58 -45.85,-124.74 -68.49,-186.31l23.28 1.32c-103.78,206.01 -204.64,406.23 -301.45,598.4l-13.08 25.96 -9.52 -27.41c-262.21,-756.01 -485.06,-1398.53 -629.64,-1815.39l13.32 -0.75c-39.56,166.8 -70.82,298.67 -92.58,390.45 -10.82,43.88 -19.26,78.14 -25.36,102.88 -2.86,10.74 -5.11,19.31 -6.97,26.29 -1.66,5.88 -2.66,8.83 -2.98,8.76 -0.3,-0.08 0.07,-3.16 1.12,-9.19 1.37,-7.08 3.05,-15.79 5.16,-26.71 5.25,-24.93 12.53,-59.44 21.84,-103.67 20.28,-92.14 49.4,-224.48 86.23,-391.91l5.23 -23.73 8.11 22.98c146.9,416.04 373.32,1057.31 639.75,1811.85l-22.58 -1.47c96.57,-192.3 197.18,-392.64 300.7,-598.78l13.17 -26.19 10.12 27.53c22.66,61.58 45.53,123.72 68.55,186.29 169.92,463.26 331.22,902.97 475.02,1295.03l-17.56 -5.45c130.07,-91.79 254.64,-179.7 371.27,-262.02l8.66 -6.11 6.13 8.59c184.32,258.87 346.49,486.62 478,671.33l-10.84 -1.65c169.77,-126.22 304.94,-226.73 399.03,-296.68 45.72,-33.43 81.4,-59.53 106.91,-78.18 11.48,-8.12 20.65,-14.61 27.87,-19.72 6.33,-4.34 9.66,-6.4 9.87,-6.13z"></path> </g> </g> </g> <g> <g> <g> <path class="fil3 str0" d="M5174.69 7565.28c-0.53,1.68 -19.26,-2.59 -52.75,-11.77 -33.51,-9.05 -81.54,-23.76 -140.45,-43.27 -117.83,-38.93 -278.68,-99.14 -451.44,-177.04 -172.75,-78.1 -324.29,-158.94 -431.42,-221.59 -53.6,-31.29 -96.38,-57.59 -125.32,-76.75 -29.04,-19.04 -44.63,-30.27 -43.71,-31.78 0.9,-1.5 18.24,6.86 48.76,23.26 35.34,19.04 78.4,42.26 129.05,69.55 109.05,58.45 261.17,136.36 433.13,214.12 171.97,77.54 331,140.11 446.94,183.27 53.97,19.94 99.86,36.89 137.53,50.81 32.49,12.06 50.21,19.53 49.69,21.21z"></path> </g> </g> </g> <g> <g> <g> <path class="fil3" d="M5274.52 7720.81c-0.75,3.23 -47.34,-3.92 -121.41,-21.47 -74.05,-17.5 -175.38,-46.19 -284.81,-85.28 -109.42,-39.18 -205.97,-81.27 -274.32,-114.69 -68.4,-33.42 -108.95,-57.42 -107.47,-60.4 1.64,-3.33 44.92,14.94 114.85,43.98 69.94,29.08 166.84,68.22 275.52,107.15 108.67,38.79 208.42,70 280.93,91.86 72.49,21.9 117.54,35.23 116.71,38.85z"></path> </g> </g> </g> <g> <g> <path class="fil3" d="M4284.06 9107.55c0,31.02 -18.86,56.16 -42.13,56.16 -23.26,0 -42.12,-25.14 -42.12,-56.16 0,-31.03 18.86,-56.16 42.12,-56.16 23.27,0 42.13,25.13 42.13,56.16z"></path> </g> </g> <g> <g> <path class="fil3" d="M3364.64 7922.45c0,31.02 -18.86,56.16 -42.13,56.16 -23.26,0 -42.12,-25.14 -42.12,-56.16 0,-31.02 18.86,-56.17 42.12,-56.17 23.27,0 42.13,25.16 42.13,56.17z"></path> </g> </g> <g> <g> <path class="fil1" d="M2436.13 6685.72c0,31.02 -18.86,56.16 -42.13,56.16 -23.26,0 -42.12,-25.14 -42.12,-56.16 0,-31.03 18.86,-56.17 42.12,-56.17 23.27,0 42.13,25.14 42.13,56.17z"></path> </g> </g> </g> <g id="_2273393991792"> <g> <g> <path class="fil1" d="M18123.35 5467.41l-310.54 3808.7c0,0 -906.43,1628.78 -3402.82,1690.79l308.5 -3834.72c0,0 2177.68,-88.34 3404.86,-1664.77z"></path> </g> </g> <g> <g> <path class="fil5" d="M18077.15 5268.81c-81.4,-263.67 -278.61,-639.37 -748.11,-717.58l-554.98 5123.09c0,0 1041.87,-208.05 1069.81,-779.1 2.41,-49.3 210.89,-2595.52 263.01,-3225.96 11.41,-137.97 11.12,-268.17 -29.73,-400.45z"></path> </g> </g> <g> <g> <path class="fil2" d="M18123.35 5467.41l-310.54 3808.7c0,0 -906.43,1628.78 -3402.82,1690.79l308.5 -3834.72c0,0 2177.68,-88.34 3404.86,-1664.77z"></path> </g> </g> <g> <g> <path class="fil3" d="M18048.95 6438.37c-248.95,359.99 -389.18,794.14 -397.83,1231.73 -2.49,126.32 4.89,257.23 -43.13,374.08 -48.02,116.85 -173.56,214.45 -295.42,181.05 -127.34,-34.9 -184.28,-185.4 -295.89,-255.95 -99.26,-62.73 -233.48,-52.07 -334.92,7.07 -101.44,59.14 -173.13,159.87 -219.95,267.55 -90.78,208.84 -96.71,444.35 -163.57,662.03 -66.86,217.68 -230.79,437.08 -458.3,446.99 -83.05,3.62 -165.25,-21.54 -248.34,-19.07 -175.74,5.23 -328.21,135.8 -410.16,291.36 -81.94,155.55 -106.5,333.96 -129.77,508.22 0,0 1330.7,126.75 2824.71,-1637.21l172.55 -2057.85z"></path> </g> </g> <g> <g> <path class="fil3" d="M15933.25 8748.71c0,47.25 -23.38,85.56 -52.22,85.56 -28.84,0 -52.22,-38.31 -52.22,-85.56 0,-47.25 23.38,-85.56 52.22,-85.56 28.84,0 52.22,38.31 52.22,85.56z"></path> </g> </g> <g> <g> <path class="fil3" d="M16560.11 7165.18c0,47.26 -23.38,85.56 -52.22,85.56 -28.84,0 -52.22,-38.29 -52.22,-85.56 0,-47.25 23.38,-85.56 52.22,-85.56 28.84,0 52.22,38.31 52.22,85.56z"></path> </g> </g> <g> <g> <g> <path class="fil3" d="M18019.04 6622.16c0.53,0.26 -2.41,7.65 -8.61,21.69 -7.1,15.56 -16.41,35.99 -28.13,61.7 -26.21,55.58 -63.14,133.9 -109.71,232.65 -96.75,201.52 -233.38,486.11 -396.84,826.59l-5.36 11.17 -10.55 -6.67c-276.6,-175.01 -598.25,-378.52 -941.4,-595.63l18.6 -5.95c-12.39,30.49 -25.71,63.3 -39.1,96.28 -232.94,570.28 -446,1091.89 -607.94,1488.34l-4.16 10.17 -9.54 -5.36c-234.73,-132.05 -426.22,-238.08 -559.33,-310.41 -66.62,-36.02 -118.57,-63.82 -154.17,-81.88 -16.74,-8.16 -30.16,-14.72 -40.77,-19.9 -9.36,-3.66 -14.28,-5.83 -14.21,-6.31 1.66,-4.81 79.8,28.61 214.21,98.53 134.78,69.49 327.71,173.01 563.71,303.08l-13.67 4.81c160.42,-397.06 371.49,-919.49 602.26,-1490.66 13.4,-32.97 26.74,-65.78 39.13,-96.27l5.75 -14.14 12.86 8.19c342.5,218.11 663.56,422.57 939.64,598.4l-15.9 4.5c166.86,-338.83 306.32,-622.03 405.09,-822.58 48.91,-97.61 87.7,-175.02 115.24,-229.96 12.97,-25.11 23.28,-45.04 31.14,-60.23 7.23,-13.55 11.21,-20.42 11.75,-20.17z"></path> </g> </g> </g> </g> </g> </svg> 