<?xml version="1.0" encoding="UTF-8"?> <!-- Generator: Adobe Illustrator 21.0.0, SVG Export Plug-In . SVG Version: 6.00 Build 0) --> <svg xmlns="http://www.w3.org/2000/svg" xmlns:xlink="http://www.w3.org/1999/xlink" id="Layer_1" x="0px" y="0px" viewBox="0 0 98.624 98.624" style="enable-background:new 0 0 98.624 98.624;" xml:space="preserve"> <path d="M49.312,0C22.078,0,0,22.078,0,49.312s22.078,49.312,49.312,49.312s49.312-22.078,49.312-49.312S76.546,0,49.312,0z M63.8,28.265c-2.344,0-4.703,0-7.046,0c-1.483-0.096-3.013,1.036-3.284,2.519c-0.032,2.567-0.016,5.133-0.016,7.7 c3.443,0.016,6.887,0,10.331,0.016c-0.255,3.714-0.717,7.413-1.259,11.08c-3.045,0.032-6.09,0-9.135,0.016 c-0.032,10.952,0.016,21.888-0.016,32.841c-4.528,0.016-9.039-0.016-13.567,0.016c-0.08-10.952,0-21.904-0.048-32.857 c-2.2-0.016-4.416,0.016-6.616-0.016c0.016-3.683,0-7.365,0-11.032c2.2-0.032,4.416,0,6.616-0.016 c0.064-3.571-0.064-7.158,0.064-10.729c0.239-2.854,1.307-5.707,3.428-7.668c2.567-2.439,6.201-3.268,9.645-3.364 c3.635-0.032,7.27-0.016,10.904-0.016C63.816,20.597,63.816,24.423,63.8,28.265z"></path> </svg> 