<?xml version="1.0" encoding="UTF-8"?> <!-- Creator: CorelDRAW 2020 (64-Bit) --> <svg xmlns="http://www.w3.org/2000/svg" xmlns:xlink="http://www.w3.org/1999/xlink" xmlns:xodm="http://www.corel.com/coreldraw/odm/2003" xml:space="preserve" width="186.77mm" height="64.7263mm" style="shape-rendering:geometricPrecision; text-rendering:geometricPrecision; image-rendering:optimizeQuality; fill-rule:evenodd; clip-rule:evenodd" viewBox="0 0 1092.94 378.76"> <defs> <style type="text/css"> <![CDATA[ .str0 {stroke:#8BC447;stroke-width:0.45;stroke-miterlimit:22.9256} .fil3 {fill:#2B2A29} .fil2 {fill:#8BC447} .fil0 {fill:#FAC61B} .fil1 {fill:#FFD54C} ]]> </style> </defs> <g id="Слой_x0020_1"> <metadata id="CorelCorpID_0Corel-Layer"></metadata> <path class="fil0" d="M0.37 217.74l78.29 -0.69c6.25,15.99 63.01,160.21 64.07,161.71 0.74,-2.11 2.39,-6.82 4.08,-11.46 1.17,-3.04 2.46,-6.45 3.79,-9.69 2.77,-6.79 5.1,-13.54 7.85,-20.38l39.16 -100.59c1.24,-3.18 2.46,-6.48 3.73,-9.78l4.61 -9.67 77.51 -0.64c-1.28,-2.23 -0.14,-0.84 -1.67,-2.53l-8.09 -6.73c-10.75,-9.53 -56.65,-53.46 -68.54,-62.18l-36.75 0 36.37 71.92 -125.38 -0.2c2.28,-8.2 13.99,-28.03 18.58,-36.91 4.83,-9.34 11.67,-25.84 17.84,-34.81l-36.57 0 -19.44 16.26c-3.77,3.08 -6.22,6.4 -10.04,9.56l-20.75 18.52c-4.56,4.82 -5.79,5.75 -10.19,9.42l-15.52 13.95c-3.71,3.01 -3.65,2.86 -2.95,4.92z"></path> <path class="fil1" d="M115.83 145.12c-6.17,8.97 -13.02,25.47 -17.84,34.81 -4.59,8.88 -16.3,28.71 -18.58,36.91l125.38 0.2 -36.37 -71.92 -52.58 0z"></path> <path class="fil1" d="M142.73 378.76l36.67 -41.41c3.41,-3.34 4.9,-6.58 8.41,-9.99 4.17,-4.06 4.98,-5.66 9.42,-10.19 3.37,-3.44 4.29,-5.44 8.58,-9.83 1.96,-2 2.6,-3.29 4.37,-5.47l61.24 -69.96c2.27,-2.8 13.05,-12.69 12.03,-15.37l-77.51 0.64 -4.61 9.67c-1.26,3.29 -2.49,6.6 -3.73,9.78l-39.16 100.59c-2.75,6.84 -5.08,13.59 -7.85,20.38 -1.04,2.54 -8.13,20.6 -7.87,21.15z"></path> <path class="fil1" d="M142.73 378.76l-64.07 -161.71 -78.29 0.69 86.87 100.02c9.76,9.57 49.86,57.14 55.49,61z"></path> <path class="fil2 str0" d="M135.89 129.49l-53.4 -96.02c-5.62,-10.99 -13.17,-21.97 -17.82,-33.24l71.23 0.3 -0.01 128.97z"></path> <path class="fil2" d="M147.89 129.09l0.02 -94.96 52.4 0.16c-2.44,6.9 -8.93,17.78 -12.53,24.13l-25.58 46.78c-2.15,4.04 -11,20.85 -14.31,23.89z"></path> <path class="fil3" d="M330.96 180.34c-0.37,1.23 -0.56,2.54 -0.56,3.85 0,1.68 0.3,3.44 0.9,5.23l44.89 121.14c1.01,2.69 2.62,4.82 4.82,6.39 2.17,1.57 4.75,2.35 7.66,2.35l4.04 0 3.85 0c2.92,0 5.49,-0.78 7.7,-2.35 2.24,-1.57 3.85,-3.7 4.9,-6.39l45 -121.14c0.64,-1.79 0.97,-3.59 0.97,-5.35 0,-0.52 -0.04,-1.01 -0.11,-1.42 -0.22,-2.2 -0.9,-4.04 -2.02,-5.49 -1.12,-1.46 -2.5,-2.73 -4.11,-3.81 -1.61,-1.12 -3.4,-1.79 -5.35,-2.09 -0.75,-0.07 -1.53,-0.11 -2.32,-0.11 -1.23,-0.07 -2.35,0.04 -3.4,0.34 -1.76,0.45 -3.44,1.38 -5.05,2.84 -1.61,1.46 -2.84,3.36 -3.7,5.68l-36.48 97.82 -36.14 -97.82c-1.16,-3.21 -3.03,-5.57 -5.57,-7.1 -2.06,-1.23 -4.07,-1.87 -6.13,-1.87 -0.52,0 -1.05,0.07 -1.64,0.22 -2.62,0.45 -5.12,1.38 -7.44,2.8 -2.35,1.42 -3.92,3.51 -4.71,6.28zm142 125.51c0,3.4 0.93,6.32 2.8,8.63 1.83,2.35 4.07,3.78 6.73,4.26 1.31,0.22 2.62,0.34 3.92,0.34l3.92 -0.34c2.65,-0.49 4.9,-1.91 6.73,-4.26 1.87,-2.32 2.8,-5.23 2.8,-8.63l0 -87.5c0,-2.84 -0.64,-5.35 -1.98,-7.44 -1.31,-2.13 -2.95,-3.66 -4.97,-4.6 -1.98,-0.97 -4.15,-1.46 -6.5,-1.46 -2.32,0 -4.49,0.49 -6.5,1.46 -2.02,0.93 -3.66,2.47 -4.97,4.6 -1.31,2.09 -1.98,4.6 -1.98,7.44l0 87.5zm1.42 -132.09c-0.93,2.02 -1.42,4.19 -1.42,6.5 0,2.32 0.49,4.49 1.42,6.5 0.93,2.02 2.47,3.66 4.6,4.97 2.13,1.31 4.6,1.98 7.44,1.98l0.22 0c2.84,0 5.31,-0.67 7.44,-1.98 2.13,-1.31 3.66,-2.95 4.6,-4.97 0.93,-2.02 1.42,-4.19 1.42,-6.5 0,-2.32 -0.49,-4.49 -1.42,-6.5 -0.93,-2.02 -2.47,-3.66 -4.6,-4.97 -2.13,-1.31 -4.6,-1.98 -7.44,-1.98l-0.22 0c-2.84,0 -5.31,0.67 -7.44,1.98 -2.13,1.31 -3.66,2.95 -4.6,4.97zm47.62 131.08c-0.07,0.52 -0.11,0.97 -0.11,1.31 0.07,1.61 0.41,3.07 1.01,4.41 0.71,1.68 1.76,3.25 3.07,4.71 1.31,1.46 2.92,2.5 4.82,3.18 1.76,0.71 3.55,1.08 5.46,1.08 0.07,0 0.15,0 0.22,0 1.83,0 3.66,-0.52 5.49,-1.53 1.87,-1.05 3.51,-2.62 4.9,-4.71l31.43 -46.98 31.43 46.98c1.91,2.84 4.26,4.71 7.14,5.57 1.38,0.45 2.69,0.71 3.92,0.78 1.31,0.07 2.62,-0.19 3.92,-0.78 2.5,-1.01 4.67,-2.47 6.58,-4.37 1.98,-1.91 3.03,-4.3 3.18,-7.21 0,-0.22 0,-0.49 0,-0.79 0,-2.62 -0.79,-5.27 -2.39,-8l-37.56 -56.36 33.38 -49.94c1.42,-2.06 2.21,-4.15 2.43,-6.32 0.22,-2.13 -0.07,-4.07 -0.82,-5.76 -0.79,-1.68 -1.79,-3.25 -3.14,-4.71 -1.31,-1.46 -2.88,-2.5 -4.75,-3.18 -1.87,-0.63 -3.74,-0.97 -5.64,-0.97l-0.11 -0.11c-1.83,0.07 -3.66,0.64 -5.46,1.64 -1.91,1.01 -3.55,2.54 -4.93,4.6l-27.17 40.52 -27.14 -40.52c-1.38,-2.06 -3.03,-3.59 -4.93,-4.6 -1.83,-1.01 -3.66,-1.57 -5.49,-1.64l-0.11 0.11c-1.87,0 -3.78,0.34 -5.61,0.97 -1.87,0.67 -3.48,1.72 -4.78,3.18 -1.31,1.46 -2.35,3.03 -3.1,4.71 -0.78,1.68 -1.05,3.63 -0.82,5.76 0.22,2.17 1.01,4.26 2.39,6.32l33.42 49.94 -37.68 56.36c-1.38,2.06 -2.2,4.19 -2.43,6.35zm126.34 -91.91c-2.02,2.32 -3.03,4.9 -3.03,7.7 0,2.8 1.01,5.38 3.03,7.7 2.02,2.35 4.78,3.51 8.37,3.51l4.71 0 0 31.43c0.15,17.46 2.95,30.39 8.48,38.87 5.49,8.45 15.14,14.13 28.93,16.97 1.12,0.22 2.17,0.34 3.18,0.34 2.13,-0.07 4.07,-0.56 5.83,-1.42 2.62,-1.35 4.52,-3.21 5.68,-5.72 1.01,-2.39 1.53,-4.9 1.53,-7.55 0,-2.84 -1.01,-5.42 -2.95,-7.77 -1.91,-2.32 -4.52,-3.77 -7.89,-4.37 -6.28,-1.31 -10.13,-2.39 -11.51,-3.18 -2.24,-1.31 -3.59,-4.04 -4.04,-8.22 -0.22,-2.24 -0.34,-8.22 -0.34,-17.94l0 -31.43 13.16 0c3.55,0 6.35,-1.16 8.37,-3.51 1.98,-2.32 2.99,-4.9 2.99,-7.7 0,-2.8 -1.01,-5.38 -2.99,-7.7 -2.02,-2.35 -4.82,-3.51 -8.37,-3.51l-13.04 0 0.11 -24.41c0.07,-3.44 -0.82,-6.32 -2.69,-8.67 -1.87,-2.32 -4.11,-3.78 -6.73,-4.37 -1.38,-0.3 -2.8,-0.45 -4.26,-0.45 -1.23,0 -2.47,0.11 -3.7,0.34 -2.73,0.52 -5.01,1.94 -6.84,4.26 -1.87,2.35 -2.84,5.23 -2.92,8.67l0 24.63 -4.71 0c-3.59,0 -6.35,1.16 -8.37,3.51zm80.1 92.92c0,3.4 0.93,6.32 2.8,8.63 1.83,2.35 4.07,3.78 6.73,4.26 1.31,0.22 2.62,0.34 3.92,0.34l3.92 -0.34c2.65,-0.49 4.9,-1.91 6.73,-4.26 1.87,-2.32 2.8,-5.23 2.8,-8.63l0 -42.61c0,-3.06 0.04,-5.64 0.11,-7.77 0.07,-2.13 0.26,-4.11 0.6,-5.98 0.34,-1.87 0.64,-3.36 0.93,-4.52 0.3,-1.2 0.86,-2.32 1.76,-3.4 0.86,-1.08 1.64,-1.94 2.28,-2.58 0.67,-0.64 1.79,-1.31 3.36,-2.02 1.57,-0.75 2.95,-1.31 4.15,-1.72 1.2,-0.37 3.03,-0.97 5.42,-1.79 2.35,-0.71 4.26,-1.91 5.79,-3.51 1.61,-1.61 2.65,-3.29 3.07,-5.01 0.37,-1.35 0.52,-2.65 0.45,-3.96 0,-0.6 0,-1.16 0,-1.76 -0.15,-2.02 -0.75,-3.85 -1.79,-5.46 -1.08,-1.61 -2.32,-3.03 -3.78,-4.3 -1.38,-1.23 -3.18,-1.98 -5.38,-2.28 -0.56,-0.07 -1.23,-0.11 -1.98,-0.11 -1.61,0 -3.25,0.26 -4.9,0.78 -3.89,1.31 -7.55,3.89 -10.95,7.77 -1.12,-3.07 -3.1,-5.35 -6.02,-6.8 -2.28,-1.16 -4.52,-1.76 -6.8,-1.76 -0.71,-0.07 -1.38,-0.04 -1.94,0.11 -2.95,0.45 -5.53,1.83 -7.85,4.22 -2.28,2.35 -3.44,5.46 -3.44,9.23l0 85.22zm68.1 -42.39c0,16.71 4.6,30.57 13.79,41.6 9.19,10.99 20.82,16.48 34.84,16.48 0.07,0 0.19,0 0.34,0 9.53,0 19.96,-3.29 31.21,-9.87l0 0.07 0.07 0.11c1.12,2.21 2.54,3.96 4.3,5.23 1.76,1.27 3.55,2.02 5.42,2.21 1.83,0.19 3.74,0.04 5.68,-0.41 1.94,-0.41 3.66,-1.27 5.16,-2.5 1.5,-1.23 2.73,-2.69 3.7,-4.34 1.01,-1.64 1.5,-3.55 1.5,-5.68 0,-2.09 -0.52,-4.3 -1.53,-6.58 -0.75,-1.31 -1.38,-3.07 -1.98,-5.2 -0.56,-2.17 -0.86,-3.7 -0.86,-4.67l0.22 -69.07c0,-4.45 -1.46,-7.92 -4.41,-10.43 -2.69,-2.28 -5.72,-3.4 -9.08,-3.4 -0.37,0.07 -0.67,0.11 -0.97,0.11 -3.81,0.3 -6.95,1.76 -9.42,4.37 -9.94,-4.37 -19.62,-6.58 -29.12,-6.58l-0.22 0c-13.94,0.15 -25.53,5.72 -34.76,16.71 -9.23,10.99 -13.87,24.93 -13.87,41.82zm26.91 0c0,-11.81 1.64,-20.03 4.97,-24.67 3.33,-4.64 8.97,-6.95 16.93,-6.95 5.68,0.07 10.95,1.01 15.81,2.84 4.86,1.83 8.22,3.44 10.02,4.82l0 23.73 0 19.92c-9.83,7.66 -18.46,11.47 -25.83,11.47l-0.22 0c-0.22,0 -0.45,0 -0.64,0 -7.4,0 -12.71,-2.28 -16,-6.8 -3.36,-4.63 -5.05,-12.78 -5.05,-24.37zm97.03 -0.45c0.07,17.53 4.71,31.7 13.94,42.42 9.23,10.73 21.01,16.11 35.32,16.11 0.22,0 0.41,0 0.64,0 8.56,0 16.56,-1.35 24,-4.07 7.66,-2.77 13.9,-5.79 18.73,-9.12 2.06,-1.31 3.63,-2.92 4.71,-4.82 1.08,-1.83 1.64,-3.66 1.64,-5.49 0,-1.91 -0.37,-3.77 -1.12,-5.68 -0.63,-1.91 -1.68,-3.55 -3.14,-4.9 -1.5,-1.35 -3.07,-2.39 -4.78,-3.18 -1.72,-0.75 -3.66,-1.01 -5.79,-0.82 -2.17,0.22 -4.26,1.05 -6.32,2.43 -8.82,5.83 -18.35,8.75 -28.56,8.75l-0.22 0c-0.22,0 -0.49,0 -0.78,0 -7.66,0 -13.08,-2.2 -16.3,-6.58 -3.36,-4.52 -5.05,-12.86 -5.05,-25.04 0.07,-12.04 1.76,-20.22 5.05,-24.59 3.29,-4.37 9.05,-6.58 17.31,-6.58 11.36,0.22 20.56,3.14 27.58,8.75 1.98,1.46 4.04,2.39 6.2,2.73 2.13,0.37 4.07,0.22 5.83,-0.41 1.76,-0.67 3.44,-1.61 5.01,-2.8 1.53,-1.2 2.73,-2.73 3.55,-4.56 0.86,-1.83 1.38,-3.66 1.53,-5.57 0,-0.3 0,-0.6 0,-0.9 0,-1.61 -0.37,-3.21 -1.12,-4.82 -0.86,-1.91 -2.32,-3.63 -4.37,-5.16 -4.9,-3.59 -11.29,-6.84 -19.21,-9.76 -7.92,-2.95 -16.26,-4.41 -25.01,-4.41l-0.22 0c-14.09,0.15 -25.79,5.53 -35.1,16.11 -9.31,10.58 -13.94,24.59 -13.94,41.97zm105.74 -50.09c-2.02,2.32 -3.03,4.9 -3.03,7.7 0,2.8 1.01,5.38 3.03,7.7 2.02,2.35 4.78,3.51 8.37,3.51l4.71 0 0 31.43c0.15,17.46 2.95,30.39 8.48,38.87 5.49,8.45 15.14,14.13 28.93,16.97 1.12,0.22 2.17,0.34 3.18,0.34 2.13,-0.07 4.07,-0.56 5.83,-1.42 2.62,-1.35 4.52,-3.21 5.68,-5.72 1.01,-2.39 1.53,-4.9 1.53,-7.55 0,-2.84 -1.01,-5.42 -2.95,-7.77 -1.91,-2.32 -4.52,-3.77 -7.89,-4.37 -6.28,-1.31 -10.13,-2.39 -11.51,-3.18 -2.24,-1.31 -3.59,-4.04 -4.04,-8.22 -0.22,-2.24 -0.34,-8.22 -0.34,-17.94l0 -31.43 13.16 0c3.55,0 6.35,-1.16 8.37,-3.51 1.98,-2.32 2.99,-4.9 2.99,-7.7 0,-2.8 -1.01,-5.38 -2.99,-7.7 -2.02,-2.35 -4.82,-3.51 -8.37,-3.51l-13.04 0 0.11 -24.41c0.07,-3.44 -0.82,-6.32 -2.69,-8.67 -1.87,-2.32 -4.11,-3.78 -6.73,-4.37 -1.38,-0.3 -2.8,-0.45 -4.26,-0.45 -1.23,0 -2.47,0.11 -3.7,0.34 -2.73,0.52 -5.01,1.94 -6.84,4.26 -1.87,2.35 -2.84,5.23 -2.92,8.67l0 24.63 -4.71 0c-3.59,0 -6.35,1.16 -8.37,3.51z"></path> </g> </svg> 